%FSLAX24Y24*%
%MOIN*%
G70*
G01*
G75*
G04 Layer_Color=16711935*
%ADD10R,0.0669X0.0433*%
G04:AMPARAMS|DCode=11|XSize=74.8mil|YSize=126mil|CornerRadius=0mil|HoleSize=0mil|Usage=FLASHONLY|Rotation=90.000|XOffset=0mil|YOffset=0mil|HoleType=Round|Shape=Octagon|*
%AMOCTAGOND11*
4,1,8,-0.0630,-0.0187,-0.0630,0.0187,-0.0443,0.0374,0.0443,0.0374,0.0630,0.0187,0.0630,-0.0187,0.0443,-0.0374,-0.0443,-0.0374,-0.0630,-0.0187,0.0*
%
%ADD11OCTAGOND11*%

%ADD12R,0.0551X0.0236*%
%ADD13R,0.0709X0.0236*%
%ADD14R,0.0433X0.0551*%
%ADD15C,0.0100*%
%ADD16C,0.0150*%
%ADD17C,0.0300*%
%ADD18C,0.0250*%
%ADD19C,0.0200*%
%ADD20R,0.0591X0.0591*%
%ADD21C,0.0591*%
%ADD22C,0.0580*%
%ADD23R,0.0580X0.0580*%
%ADD24R,0.0591X0.0591*%
%ADD25C,0.0500*%
%ADD26C,0.0400*%
%ADD27R,0.0618X0.0906*%
%ADD28R,0.0276X0.0354*%
%ADD29R,0.0354X0.0276*%
%ADD30R,0.0315X0.0315*%
%ADD31O,0.0532X0.0217*%
%ADD32O,0.0217X0.0532*%
%ADD33R,0.0236X0.0551*%
%ADD34R,0.0236X0.0354*%
G04:AMPARAMS|DCode=35|XSize=70.9mil|YSize=141.7mil|CornerRadius=0mil|HoleSize=0mil|Usage=FLASHONLY|Rotation=0.000|XOffset=0mil|YOffset=0mil|HoleType=Round|Shape=Octagon|*
%AMOCTAGOND35*
4,1,8,-0.0177,0.0709,0.0177,0.0709,0.0354,0.0532,0.0354,-0.0532,0.0177,-0.0709,-0.0177,-0.0709,-0.0354,-0.0532,-0.0354,0.0532,-0.0177,0.0709,0.0*
%
%ADD35OCTAGOND35*%

%ADD36R,0.0315X0.0315*%
%ADD37C,0.0098*%
%ADD38C,0.0079*%
%ADD39C,0.0080*%
%ADD40R,0.0749X0.0513*%
G04:AMPARAMS|DCode=41|XSize=82.8mil|YSize=134mil|CornerRadius=0mil|HoleSize=0mil|Usage=FLASHONLY|Rotation=90.000|XOffset=0mil|YOffset=0mil|HoleType=Round|Shape=Octagon|*
%AMOCTAGOND41*
4,1,8,-0.0670,-0.0207,-0.0670,0.0207,-0.0463,0.0414,0.0463,0.0414,0.0670,0.0207,0.0670,-0.0207,0.0463,-0.0414,-0.0463,-0.0414,-0.0670,-0.0207,0.0*
%
%ADD41OCTAGOND41*%

%ADD42R,0.0631X0.0316*%
%ADD43R,0.0789X0.0316*%
%ADD44R,0.0513X0.0631*%
%ADD45R,0.0671X0.0671*%
%ADD46C,0.0671*%
%ADD47C,0.0660*%
%ADD48R,0.0660X0.0660*%
%ADD49R,0.0671X0.0671*%
%ADD50C,0.0480*%
%ADD51R,0.0698X0.0986*%
%ADD52R,0.0356X0.0434*%
%ADD53R,0.0434X0.0356*%
%ADD54R,0.0395X0.0395*%
%ADD55O,0.0612X0.0297*%
%ADD56O,0.0297X0.0612*%
%ADD57R,0.0316X0.0631*%
%ADD58R,0.0316X0.0434*%
G04:AMPARAMS|DCode=59|XSize=78.9mil|YSize=149.7mil|CornerRadius=0mil|HoleSize=0mil|Usage=FLASHONLY|Rotation=0.000|XOffset=0mil|YOffset=0mil|HoleType=Round|Shape=Octagon|*
%AMOCTAGOND59*
4,1,8,-0.0197,0.0749,0.0197,0.0749,0.0394,0.0552,0.0394,-0.0552,0.0197,-0.0749,-0.0197,-0.0749,-0.0394,-0.0552,-0.0394,0.0552,-0.0197,0.0749,0.0*
%
%ADD59OCTAGOND59*%

%ADD60R,0.0395X0.0395*%
D22*
X45360Y35160D02*
D03*
X49760Y32840D02*
D03*
X44446Y35246D02*
D03*
X43680Y38320D02*
D03*
X45880Y32120D02*
D03*
X48320Y32800D02*
D03*
X44000Y33120D02*
D03*
X46760Y33360D02*
D03*
D44*
X42745Y40120D02*
D03*
X43335D02*
D03*
D45*
X44800Y30240D02*
D03*
X42800D02*
D03*
X47800D02*
D03*
X49760D02*
D03*
Y35040D02*
D03*
D46*
X45800Y30240D02*
D03*
X43800D02*
D03*
X46800D02*
D03*
X48760D02*
D03*
X42820Y34140D02*
D03*
X43820D02*
D03*
X44820D02*
D03*
X45820D02*
D03*
X46820D02*
D03*
X47820D02*
D03*
X48820D02*
D03*
X49820D02*
D03*
X42820Y31140D02*
D03*
X43820D02*
D03*
X44820D02*
D03*
X45820D02*
D03*
X46820D02*
D03*
X47820D02*
D03*
X48820D02*
D03*
X49760Y40160D02*
D03*
X48760D02*
D03*
X49760Y39160D02*
D03*
X48760D02*
D03*
X49760Y38160D02*
D03*
X48760D02*
D03*
X49760Y37160D02*
D03*
X48760D02*
D03*
X49760Y36160D02*
D03*
X48760Y35040D02*
D03*
D47*
X50741Y40160D02*
D03*
Y39373D02*
D03*
Y38585D02*
D03*
Y37798D02*
D03*
Y37011D02*
D03*
Y36223D02*
D03*
Y35436D02*
D03*
Y34649D02*
D03*
Y33861D02*
D03*
Y33074D02*
D03*
X42080D02*
D03*
Y33861D02*
D03*
Y34649D02*
D03*
Y35436D02*
D03*
Y36223D02*
D03*
Y37011D02*
D03*
Y37798D02*
D03*
Y38585D02*
D03*
Y39373D02*
D03*
D48*
Y40160D02*
D03*
D49*
X49820Y31140D02*
D03*
X48760Y36160D02*
D03*
D50*
X45360Y38040D02*
D03*
X45073Y37637D02*
D03*
X46880Y38400D02*
D03*
X46280D02*
D03*
D51*
X44751Y32160D02*
D03*
X43169D02*
D03*
X44751Y33120D02*
D03*
X43169D02*
D03*
D52*
X43735Y39480D02*
D03*
X43145D02*
D03*
D53*
X45440Y32785D02*
D03*
Y33375D02*
D03*
D54*
X46160Y32755D02*
D03*
Y33405D02*
D03*
D55*
X47714Y36378D02*
D03*
Y36693D02*
D03*
Y37008D02*
D03*
Y37323D02*
D03*
Y37637D02*
D03*
Y37952D02*
D03*
Y38267D02*
D03*
Y38582D02*
D03*
X44446D02*
D03*
Y38267D02*
D03*
Y37952D02*
D03*
Y37637D02*
D03*
Y37323D02*
D03*
Y37008D02*
D03*
Y36693D02*
D03*
Y36378D02*
D03*
D56*
X47182Y39114D02*
D03*
X46867D02*
D03*
X46552D02*
D03*
X46237D02*
D03*
X45923D02*
D03*
X45608D02*
D03*
X45293D02*
D03*
X44978D02*
D03*
Y35846D02*
D03*
X45293D02*
D03*
X45608D02*
D03*
X45923D02*
D03*
X46237D02*
D03*
X46552D02*
D03*
X46867D02*
D03*
X47182D02*
D03*
D57*
X48111Y32110D02*
D03*
X46929D02*
D03*
D58*
X47520Y32011D02*
D03*
D59*
Y32897D02*
D03*
D60*
X43725Y38920D02*
D03*
X43075D02*
D03*
M02*
