%FSLAX24Y24*%
%MOIN*%
G70*
G01*
G75*
G04 Layer_Physical_Order=1*
G04 Layer_Color=255*
%ADD10R,0.0669X0.0433*%
G04:AMPARAMS|DCode=11|XSize=74.8mil|YSize=126mil|CornerRadius=0mil|HoleSize=0mil|Usage=FLASHONLY|Rotation=90.000|XOffset=0mil|YOffset=0mil|HoleType=Round|Shape=Octagon|*
%AMOCTAGOND11*
4,1,8,-0.0630,-0.0187,-0.0630,0.0187,-0.0443,0.0374,0.0443,0.0374,0.0630,0.0187,0.0630,-0.0187,0.0443,-0.0374,-0.0443,-0.0374,-0.0630,-0.0187,0.0*
%
%ADD11OCTAGOND11*%

%ADD12R,0.0551X0.0236*%
%ADD13R,0.0709X0.0236*%
%ADD14R,0.0433X0.0551*%
%ADD15C,0.0100*%
%ADD16C,0.0150*%
%ADD17C,0.0300*%
%ADD18C,0.0250*%
%ADD19C,0.0200*%
%ADD20R,0.0591X0.0591*%
%ADD21C,0.0591*%
%ADD22C,0.0580*%
%ADD23R,0.0580X0.0580*%
%ADD24R,0.0591X0.0591*%
%ADD25C,0.0500*%
%ADD26C,0.0400*%
D10*
X44040Y35989D02*
D03*
Y37051D02*
D03*
X42040Y31349D02*
D03*
Y32411D02*
D03*
D11*
X46634Y36640D02*
D03*
D12*
X45571Y36049D02*
D03*
Y37231D02*
D03*
D13*
X45650Y36640D02*
D03*
D14*
X47015Y35240D02*
D03*
X46425D02*
D03*
D15*
X44743Y37307D02*
X45494D01*
X43730Y38320D02*
X44743Y37307D01*
X43680Y38320D02*
X43730D01*
D16*
X45650Y36640D02*
X46634D01*
X44840D02*
X45650D01*
X44429Y37051D02*
X44840Y36640D01*
X44040Y37051D02*
X44429D01*
X42040Y32411D02*
Y33034D01*
X43820Y31140D02*
X44771Y32091D01*
X44773D01*
X45041Y32359D01*
Y32841D01*
X44370Y33512D02*
X45041Y32841D01*
X44370Y33512D02*
Y34327D01*
X44446Y34403D01*
Y35246D01*
X47840Y35240D02*
X48860Y34220D01*
X47840Y35240D02*
Y37280D01*
X47483Y37637D02*
X47840Y37280D01*
X45073Y37637D02*
X47483D01*
X48200Y36720D02*
X48760Y36160D01*
X48200Y36720D02*
Y37480D01*
X47760Y37920D02*
X48200Y37480D01*
X45480Y37920D02*
X47760D01*
X45360Y38040D02*
X45480Y37920D01*
X46280Y38400D02*
Y39720D01*
X46120Y39880D02*
X46280Y39720D01*
X43375Y39880D02*
X46120D01*
X42080Y38585D02*
X43375Y39880D01*
X46880Y38400D02*
Y39840D01*
X46560Y40160D02*
X46880Y39840D01*
X43040Y40160D02*
X46560D01*
X42253Y39373D02*
X43040Y40160D01*
X42080Y39373D02*
X42253D01*
X43840Y36360D02*
X43960Y36480D01*
X43641Y36360D02*
X43840D01*
X42820Y35539D02*
X43641Y36360D01*
X42820Y34140D02*
Y35539D01*
X46634Y35450D02*
Y36640D01*
X46425Y34535D02*
Y35240D01*
Y34535D02*
X46820Y34140D01*
D17*
X44040Y35989D02*
X45510D01*
X49120Y32840D02*
X49760D01*
X47820Y34140D02*
X49120Y32840D01*
X48840Y29880D02*
Y30280D01*
Y29880D02*
X49040Y29680D01*
X44820Y34140D02*
X46960Y32000D01*
X43320Y35268D02*
X44040Y35989D01*
X49040Y29680D02*
X50200D01*
X50600Y30080D01*
X46960Y32000D02*
X50160D01*
X50600Y31560D01*
Y30080D02*
Y31560D01*
D18*
X43320Y33800D02*
X44000Y33120D01*
D19*
X43320Y33800D02*
Y35268D01*
D20*
X44800Y30240D02*
D03*
X42800D02*
D03*
X47800D02*
D03*
X49760D02*
D03*
Y35040D02*
D03*
D21*
X45800Y30240D02*
D03*
X43800D02*
D03*
X46800D02*
D03*
X48760D02*
D03*
X42820Y34140D02*
D03*
X43820D02*
D03*
X44820D02*
D03*
X45820D02*
D03*
X46820D02*
D03*
X47820D02*
D03*
X48820D02*
D03*
X49820D02*
D03*
X42820Y31140D02*
D03*
X43820D02*
D03*
X44820D02*
D03*
X45820D02*
D03*
X46820D02*
D03*
X47820D02*
D03*
X48820D02*
D03*
X49760Y40160D02*
D03*
X48760D02*
D03*
X49760Y39160D02*
D03*
X48760D02*
D03*
X49760Y38160D02*
D03*
X48760D02*
D03*
X49760Y37160D02*
D03*
X48760D02*
D03*
X49760Y36160D02*
D03*
X48760Y35040D02*
D03*
D22*
X50741Y40160D02*
D03*
Y39373D02*
D03*
Y38585D02*
D03*
Y37798D02*
D03*
Y37011D02*
D03*
Y36223D02*
D03*
Y35436D02*
D03*
Y34649D02*
D03*
Y33861D02*
D03*
Y33074D02*
D03*
X42080D02*
D03*
Y33861D02*
D03*
Y34649D02*
D03*
Y35436D02*
D03*
Y36223D02*
D03*
Y37011D02*
D03*
Y37798D02*
D03*
Y38585D02*
D03*
Y39373D02*
D03*
D23*
Y40160D02*
D03*
D24*
X49820Y31140D02*
D03*
X48760Y36160D02*
D03*
D25*
X45360Y35160D02*
D03*
X49760Y32840D02*
D03*
X44446Y35246D02*
D03*
X43680Y38320D02*
D03*
X45880Y32120D02*
D03*
X48320Y32800D02*
D03*
X44000Y33120D02*
D03*
X46760Y33360D02*
D03*
D26*
X45360Y38040D02*
D03*
X45073Y37637D02*
D03*
X46880Y38400D02*
D03*
X46280D02*
D03*
M02*
