M48
;Layer_Color=9474304
;FILE_FORMAT=2:4
INCH,LZ
;TYPE=PLATED
T1F00S00C0.0250
T2F00S00C0.0280
T3F00S00C0.0340
T4F00S00C0.0354
%
T01
X045073Y037637
X04536Y03804
X04628Y0384
X04688
T02
X044Y03312
X044446Y035246
X04368Y03832
X04536Y03516
X04676Y03336
X04588Y03212
X04832Y0328
X04976Y03284
T03
X04208Y033074
Y033861
Y034649
Y035436
Y036223
Y037011
Y037798
Y038585
Y039373
Y04016
X050741
Y039373
Y038585
Y037798
Y037011
Y036223
Y035436
Y034649
Y033861
Y033074
T04
X0428Y03024
X04282Y03114
X04382
X0438Y03024
X0448
X04482Y03114
Y03414
X04382
X04282
X04582
X04682
X04782
X04882
X04876Y03504
X04976
X04982Y03414
X04976Y03616
Y03716
Y03816
Y03916
Y04016
X04876
Y03916
Y03816
Y03716
Y03616
X04882Y03114
X04876Y03024
X0478
X04782Y03114
X04682
X0468Y03024
X0458
X04582Y03114
X04982
X04976Y03024
M30
