%FSLAX24Y24*%
%MOIN*%
G70*
G01*
G75*
G04 Layer_Physical_Order=1*
G04 Layer_Color=255*
%ADD10R,0.0433X0.0551*%
%ADD11C,0.0100*%
%ADD12C,0.0150*%
%ADD13C,0.0300*%
%ADD14C,0.0250*%
%ADD15C,0.0200*%
%ADD16C,0.0580*%
%ADD17R,0.0580X0.0580*%
%ADD18R,0.0591X0.0591*%
%ADD19C,0.0591*%
%ADD20R,0.0591X0.0591*%
%ADD21C,0.0500*%
%ADD22C,0.0400*%
G36*
X46794Y31834D02*
X46794D01*
X46794Y31834D01*
X46794D01*
X46794Y31834D01*
Y31834D01*
X46794Y31834D01*
Y31834D01*
X46870Y31783D01*
X46960Y31765D01*
X48320D01*
Y29800D01*
X41840D01*
X41760Y29880D01*
Y31052D01*
X41990D01*
Y31349D01*
Y31645D01*
X41760D01*
Y32115D01*
X42455D01*
Y32708D01*
X42289D01*
X42273Y32755D01*
X42344Y32810D01*
X42403Y32887D01*
X42440Y32977D01*
X42453Y33074D01*
X42440Y33171D01*
X42403Y33261D01*
X42344Y33338D01*
X42267Y33397D01*
X42177Y33434D01*
X42114Y33443D01*
Y33493D01*
X42177Y33501D01*
X42223Y33520D01*
X44204D01*
X44212Y33512D01*
X44212Y33512D01*
D01*
X44224Y33452D01*
X44258Y33401D01*
X44223Y33365D01*
X44223Y33365D01*
X44222Y33365D01*
X44166Y33408D01*
X44086Y33442D01*
X44050Y33446D01*
Y33170D01*
X44326D01*
X44322Y33206D01*
X44288Y33286D01*
X44244Y33344D01*
X44281Y33377D01*
X44883Y32776D01*
Y32424D01*
X44666Y32207D01*
X44659Y32202D01*
X43949Y31493D01*
X43918Y31506D01*
X43820Y31519D01*
X43722Y31506D01*
X43631Y31468D01*
X43552Y31408D01*
X43492Y31329D01*
X43454Y31238D01*
X43441Y31140D01*
X43454Y31042D01*
X43492Y30951D01*
X43552Y30872D01*
X43631Y30812D01*
X43722Y30774D01*
X43820Y30761D01*
X43918Y30774D01*
X44009Y30812D01*
X44088Y30872D01*
X44148Y30951D01*
X44186Y31042D01*
X44199Y31140D01*
X44186Y31238D01*
X44173Y31269D01*
X44878Y31975D01*
X44885Y31979D01*
X45153Y32247D01*
X45187Y32298D01*
X45199Y32359D01*
X45199Y32359D01*
X45199Y32359D01*
Y32359D01*
Y32841D01*
X45187Y32902D01*
X45153Y32953D01*
X44632Y33474D01*
X44651Y33520D01*
X45108D01*
X46794Y31834D01*
D02*
G37*
G36*
X50365Y31463D02*
Y30177D01*
X50181Y29993D01*
X50135Y30012D01*
Y30615D01*
X49385D01*
Y29915D01*
X49137D01*
X49075Y29977D01*
Y30033D01*
X49088Y30051D01*
X49126Y30142D01*
X49139Y30240D01*
X49126Y30338D01*
X49088Y30429D01*
X49028Y30508D01*
X48949Y30568D01*
X48858Y30606D01*
X48760Y30619D01*
X48662Y30606D01*
X48571Y30568D01*
X48492Y30508D01*
X48487Y30501D01*
X48440Y30517D01*
Y30949D01*
X48489Y30958D01*
X48492Y30951D01*
X48552Y30872D01*
X48631Y30812D01*
X48722Y30774D01*
X48820Y30761D01*
X48918Y30774D01*
X49009Y30812D01*
X49088Y30872D01*
X49148Y30951D01*
X49186Y31042D01*
X49199Y31140D01*
X49186Y31238D01*
X49148Y31329D01*
X49088Y31408D01*
X49009Y31468D01*
X48918Y31506D01*
X48820Y31519D01*
X48722Y31506D01*
X48631Y31468D01*
X48552Y31408D01*
X48492Y31329D01*
X48489Y31322D01*
X48440Y31331D01*
Y31765D01*
X50063D01*
X50365Y31463D01*
D02*
G37*
G36*
X50540Y40473D02*
X50477Y40424D01*
X50417Y40347D01*
X50380Y40257D01*
X50367Y40160D01*
X50380Y40063D01*
X50417Y39973D01*
X50477Y39896D01*
X50554Y39837D01*
X50644Y39800D01*
X50706Y39791D01*
Y39741D01*
X50644Y39733D01*
X50554Y39696D01*
X50477Y39637D01*
X50417Y39559D01*
X50380Y39469D01*
X50367Y39373D01*
X50380Y39276D01*
X50417Y39186D01*
X50477Y39109D01*
X50554Y39049D01*
X50644Y39012D01*
X50706Y39004D01*
Y38954D01*
X50644Y38946D01*
X50554Y38909D01*
X50477Y38849D01*
X50417Y38772D01*
X50380Y38682D01*
X50367Y38585D01*
X50380Y38489D01*
X50417Y38399D01*
X50477Y38321D01*
X50554Y38262D01*
X50644Y38225D01*
X50706Y38217D01*
Y38167D01*
X50644Y38158D01*
X50554Y38121D01*
X50477Y38062D01*
X50417Y37985D01*
X50380Y37895D01*
X50367Y37798D01*
X50380Y37701D01*
X50417Y37611D01*
X50477Y37534D01*
X50554Y37475D01*
X50644Y37438D01*
X50706Y37429D01*
Y37379D01*
X50644Y37371D01*
X50554Y37334D01*
X50477Y37275D01*
X50417Y37197D01*
X50380Y37107D01*
X50367Y37011D01*
X50380Y36914D01*
X50417Y36824D01*
X50477Y36747D01*
X50554Y36687D01*
X50644Y36650D01*
X50706Y36642D01*
Y36592D01*
X50644Y36584D01*
X50554Y36547D01*
X50477Y36487D01*
X50417Y36410D01*
X50380Y36320D01*
X50367Y36223D01*
X50380Y36127D01*
X50417Y36037D01*
X50477Y35959D01*
X50554Y35900D01*
X50644Y35863D01*
X50706Y35855D01*
Y35805D01*
X50644Y35796D01*
X50554Y35759D01*
X50477Y35700D01*
X50417Y35623D01*
X50407Y35598D01*
D01*
X50380Y35533D01*
X50367Y35436D01*
X50380Y35339D01*
X50417Y35249D01*
X50477Y35172D01*
X50554Y35113D01*
X50644Y35076D01*
X50706Y35067D01*
Y35017D01*
X50644Y35009D01*
X50622Y35000D01*
D01*
X50554Y34972D01*
X50477Y34913D01*
X50417Y34835D01*
X50380Y34745D01*
X50367Y34649D01*
X50380Y34552D01*
X50417Y34462D01*
X50477Y34385D01*
X50554Y34325D01*
X50644Y34288D01*
X50706Y34280D01*
Y34230D01*
X50644Y34222D01*
X50554Y34185D01*
X50477Y34125D01*
X50417Y34048D01*
X50380Y33958D01*
X50367Y33861D01*
X50380Y33765D01*
X50417Y33675D01*
X50477Y33597D01*
X50554Y33538D01*
X50644Y33501D01*
X50706Y33493D01*
Y33443D01*
X50644Y33434D01*
X50554Y33397D01*
X50477Y33338D01*
X50417Y33261D01*
X50380Y33171D01*
X50367Y33074D01*
X50380Y32977D01*
X50417Y32887D01*
X50477Y32810D01*
X50554Y32751D01*
X50644Y32714D01*
X50741Y32701D01*
X50837Y32714D01*
X50927Y32751D01*
X50995Y32803D01*
X51040Y32781D01*
Y29840D01*
X50960Y29760D01*
X50677D01*
X50658Y29806D01*
X50766Y29914D01*
X50766Y29914D01*
X50817Y29990D01*
X50835Y30080D01*
Y31560D01*
X50817Y31650D01*
X50766Y31726D01*
X50326Y32166D01*
X50250Y32217D01*
X50160Y32235D01*
X48440D01*
Y32280D01*
X47080D01*
X45545Y33815D01*
X45578Y33853D01*
X45631Y33812D01*
X45722Y33774D01*
X45820Y33761D01*
X45918Y33774D01*
X46009Y33812D01*
X46088Y33872D01*
X46148Y33951D01*
X46186Y34042D01*
X46199Y34140D01*
X46186Y34238D01*
X46148Y34329D01*
X46088Y34408D01*
X46009Y34468D01*
X45918Y34506D01*
X45820Y34519D01*
X45722Y34506D01*
X45676Y34486D01*
X45648Y34528D01*
X45670Y34550D01*
Y35010D01*
X45682Y35021D01*
X45668Y35042D01*
X45682Y35074D01*
X45686Y35110D01*
X45034D01*
X45038Y35074D01*
X45052Y35042D01*
X45024Y35000D01*
X44730D01*
X44708Y35045D01*
X44734Y35080D01*
X44768Y35160D01*
X44779Y35246D01*
X44768Y35332D01*
X44734Y35413D01*
X44682Y35482D01*
X44613Y35534D01*
X44532Y35568D01*
X44446Y35579D01*
X44360Y35568D01*
X44280Y35534D01*
X44211Y35482D01*
X44158Y35413D01*
X44125Y35332D01*
X44113Y35246D01*
X44125Y35160D01*
X44158Y35080D01*
X44185Y35045D01*
X44163Y35000D01*
X43720D01*
Y35337D01*
X44075Y35692D01*
X44455D01*
Y35754D01*
X45510D01*
X45600Y35772D01*
X45676Y35823D01*
X45695Y35851D01*
X45927D01*
Y36248D01*
X45216D01*
Y36223D01*
X44455D01*
Y36285D01*
X43720D01*
Y36755D01*
X44455D01*
X44455Y36755D01*
Y36755D01*
X44488Y36769D01*
X44728Y36528D01*
X44780Y36494D01*
X44840Y36482D01*
X45216D01*
Y36442D01*
X45924D01*
Y36413D01*
X46151Y36186D01*
X46476D01*
Y35596D01*
X46128D01*
Y35000D01*
Y34884D01*
X46267D01*
Y34535D01*
X46267Y34535D01*
X46267D01*
X46279Y34475D01*
X46313Y34424D01*
X46467Y34269D01*
X46454Y34238D01*
X46441Y34140D01*
X46454Y34042D01*
X46492Y33951D01*
X46552Y33872D01*
X46631Y33812D01*
X46722Y33774D01*
X46820Y33761D01*
X46918Y33774D01*
X47009Y33812D01*
X47088Y33872D01*
X47148Y33951D01*
X47186Y34042D01*
X47199Y34140D01*
X47186Y34238D01*
X47148Y34329D01*
X47088Y34408D01*
X47009Y34468D01*
X46918Y34506D01*
X46820Y34519D01*
X46722Y34506D01*
X46691Y34493D01*
X46583Y34601D01*
Y34884D01*
X46965D01*
Y35240D01*
Y35596D01*
X46792D01*
Y36186D01*
X47117D01*
X47344Y36413D01*
Y36867D01*
X47117Y37094D01*
X46151D01*
X45924Y36867D01*
Y36838D01*
X45216D01*
Y36798D01*
X44905D01*
X44540Y37163D01*
X44489Y37198D01*
X44455Y37204D01*
Y37343D01*
X44501Y37362D01*
X44649Y37214D01*
X44692Y37185D01*
X44743Y37175D01*
X44743Y37175D01*
X45216D01*
Y37032D01*
X45927D01*
Y37429D01*
X45584D01*
X45553Y37467D01*
X45555Y37479D01*
X47417D01*
X47682Y37215D01*
Y35240D01*
X47694Y35180D01*
X47728Y35128D01*
X47737Y35120D01*
X48507Y34349D01*
X48492Y34329D01*
X48454Y34238D01*
X48441Y34140D01*
X48454Y34042D01*
X48489Y33958D01*
D01*
X48492Y33951D01*
D01*
X48552Y33872D01*
X48631Y33812D01*
X48722Y33774D01*
X48800Y33764D01*
D01*
X48820Y33761D01*
X48918Y33774D01*
X49009Y33812D01*
X49088Y33872D01*
X49148Y33951D01*
X49186Y34042D01*
X49199Y34140D01*
X49186Y34238D01*
X49148Y34329D01*
X49088Y34408D01*
X49009Y34468D01*
X48918Y34506D01*
X48820Y34519D01*
X48789Y34514D01*
X48679Y34624D01*
X48701Y34669D01*
X48760Y34661D01*
X48858Y34674D01*
X48949Y34712D01*
X49028Y34772D01*
X49088Y34851D01*
X49126Y34942D01*
X49138Y35038D01*
D01*
X49139Y35040D01*
X49126Y35138D01*
X49088Y35229D01*
X49028Y35308D01*
X48949Y35368D01*
X48858Y35406D01*
X48760Y35419D01*
X48662Y35406D01*
X48571Y35368D01*
X48492Y35308D01*
X48432Y35229D01*
X48394Y35138D01*
X48381Y35040D01*
X48382Y35038D01*
X48352Y35003D01*
X48302Y35002D01*
X47998Y35305D01*
Y36686D01*
X48048Y36691D01*
X48054Y36660D01*
X48088Y36608D01*
X48385Y36312D01*
Y35785D01*
X49135D01*
Y36535D01*
X48608D01*
X48358Y36785D01*
Y37022D01*
X48407Y37031D01*
X48432Y36971D01*
X48492Y36892D01*
X48571Y36832D01*
X48662Y36794D01*
X48760Y36781D01*
X48858Y36794D01*
X48949Y36832D01*
X49028Y36892D01*
X49088Y36971D01*
X49126Y37062D01*
X49139Y37160D01*
X49126Y37258D01*
X49088Y37349D01*
X49028Y37428D01*
X48949Y37488D01*
X48858Y37526D01*
X48760Y37539D01*
X48662Y37526D01*
X48571Y37488D01*
X48492Y37428D01*
X48432Y37349D01*
X48407Y37289D01*
X48358Y37298D01*
Y37480D01*
X48346Y37540D01*
X48312Y37592D01*
X47872Y38032D01*
X47820Y38066D01*
X47760Y38078D01*
X46960D01*
X46953Y38127D01*
X47021Y38155D01*
X47080Y38200D01*
X47125Y38259D01*
X47153Y38327D01*
X47162Y38400D01*
X47153Y38473D01*
X47125Y38541D01*
X47080Y38600D01*
X47038Y38632D01*
Y39840D01*
X47026Y39900D01*
X46992Y39952D01*
X46672Y40272D01*
X46620Y40306D01*
X46560Y40318D01*
X43720D01*
Y40499D01*
Y40520D01*
X48535D01*
X48551Y40473D01*
X48492Y40428D01*
X48432Y40349D01*
X48394Y40258D01*
X48381Y40160D01*
X48394Y40062D01*
X48432Y39971D01*
X48492Y39892D01*
X48571Y39832D01*
X48662Y39794D01*
X48760Y39781D01*
X48858Y39794D01*
X48949Y39832D01*
X49028Y39892D01*
X49088Y39971D01*
X49126Y40062D01*
X49139Y40160D01*
X49126Y40258D01*
X49088Y40349D01*
X49028Y40428D01*
X48969Y40473D01*
X48985Y40520D01*
X49535D01*
X49551Y40473D01*
X49492Y40428D01*
X49432Y40349D01*
X49394Y40258D01*
X49381Y40160D01*
X49394Y40062D01*
X49432Y39971D01*
X49492Y39892D01*
X49571Y39832D01*
X49662Y39794D01*
X49760Y39781D01*
X49858Y39794D01*
X49949Y39832D01*
X50028Y39892D01*
X50088Y39971D01*
X50126Y40062D01*
X50139Y40160D01*
X50126Y40258D01*
X50088Y40349D01*
X50028Y40428D01*
X49969Y40473D01*
X49985Y40520D01*
X50524D01*
X50540Y40473D01*
D02*
G37*
%LPC*%
G36*
X50195Y31515D02*
X49870D01*
Y31190D01*
X50195D01*
Y31515D01*
D02*
G37*
G36*
X45830Y32070D02*
X45554D01*
X45558Y32034D01*
X45592Y31954D01*
X45645Y31885D01*
X45714Y31832D01*
X45794Y31798D01*
X45830Y31794D01*
Y32070D01*
D02*
G37*
G36*
X49770Y31515D02*
X49445D01*
Y31190D01*
X49770D01*
Y31515D01*
D02*
G37*
G36*
X42870Y31512D02*
Y31190D01*
X43192D01*
X43186Y31238D01*
X43148Y31329D01*
X43088Y31408D01*
X43009Y31468D01*
X42918Y31506D01*
X42870Y31512D01*
D02*
G37*
G36*
X43192Y31090D02*
X42870D01*
Y30768D01*
X42918Y30774D01*
X43009Y30812D01*
X43088Y30872D01*
X43148Y30951D01*
X43186Y31042D01*
X43192Y31090D01*
D02*
G37*
G36*
X45930Y32446D02*
Y32170D01*
X46206D01*
X46202Y32206D01*
X46168Y32286D01*
X46115Y32355D01*
X46046Y32408D01*
X45966Y32442D01*
X45930Y32446D01*
D02*
G37*
G36*
X48270Y32750D02*
X47994D01*
X47998Y32714D01*
X48032Y32634D01*
X48085Y32565D01*
X48154Y32512D01*
X48234Y32478D01*
X48270Y32474D01*
Y32750D01*
D02*
G37*
G36*
X48646D02*
X48370D01*
Y32474D01*
X48406Y32478D01*
X48486Y32512D01*
X48555Y32565D01*
X48608Y32634D01*
X48642Y32714D01*
X48646Y32750D01*
D02*
G37*
G36*
X46206Y32070D02*
X45930D01*
Y31794D01*
X45966Y31798D01*
X46046Y31832D01*
X46115Y31885D01*
X46168Y31954D01*
X46202Y32034D01*
X46206Y32070D01*
D02*
G37*
G36*
X43950Y33070D02*
X43674D01*
X43678Y33034D01*
X43712Y32954D01*
X43765Y32885D01*
X43834Y32832D01*
X43914Y32798D01*
X43950Y32794D01*
Y33070D01*
D02*
G37*
G36*
X45830Y32446D02*
X45794Y32442D01*
X45714Y32408D01*
X45645Y32355D01*
X45592Y32286D01*
X45558Y32206D01*
X45554Y32170D01*
X45830D01*
Y32446D01*
D02*
G37*
G36*
X42455Y31645D02*
X42090D01*
Y31349D01*
Y31052D01*
X42453D01*
X42454Y31042D01*
X42492Y30951D01*
X42552Y30872D01*
X42631Y30812D01*
X42722Y30774D01*
X42770Y30768D01*
Y31140D01*
Y31512D01*
X42722Y31506D01*
X42631Y31468D01*
X42552Y31408D01*
X42502Y31342D01*
X42455Y31358D01*
Y31645D01*
D02*
G37*
G36*
X43175Y30615D02*
X42425D01*
Y29865D01*
X43175D01*
Y30615D01*
D02*
G37*
G36*
X45175D02*
X44425D01*
Y29865D01*
X45175D01*
Y30615D01*
D02*
G37*
G36*
X48175D02*
X47425D01*
Y29865D01*
X48175D01*
Y30615D01*
D02*
G37*
G36*
X43800Y30619D02*
X43702Y30606D01*
X43611Y30568D01*
X43532Y30508D01*
X43472Y30429D01*
X43434Y30338D01*
X43421Y30240D01*
X43434Y30142D01*
X43472Y30051D01*
X43532Y29972D01*
X43611Y29912D01*
X43702Y29874D01*
X43800Y29861D01*
X43898Y29874D01*
X43989Y29912D01*
X44068Y29972D01*
X44128Y30051D01*
X44166Y30142D01*
X44179Y30240D01*
X44166Y30338D01*
X44128Y30429D01*
X44068Y30508D01*
X43989Y30568D01*
X43898Y30606D01*
X43800Y30619D01*
D02*
G37*
G36*
X45800D02*
X45702Y30606D01*
X45611Y30568D01*
X45532Y30508D01*
X45472Y30429D01*
X45434Y30338D01*
X45421Y30240D01*
X45434Y30142D01*
X45472Y30051D01*
X45532Y29972D01*
X45611Y29912D01*
X45702Y29874D01*
X45800Y29861D01*
X45898Y29874D01*
X45989Y29912D01*
X46068Y29972D01*
X46128Y30051D01*
X46166Y30142D01*
X46179Y30240D01*
X46166Y30338D01*
X46128Y30429D01*
X46068Y30508D01*
X45989Y30568D01*
X45898Y30606D01*
X45800Y30619D01*
D02*
G37*
G36*
X46800D02*
X46702Y30606D01*
X46611Y30568D01*
X46532Y30508D01*
X46472Y30429D01*
X46434Y30338D01*
X46421Y30240D01*
X46434Y30142D01*
X46472Y30051D01*
X46532Y29972D01*
X46611Y29912D01*
X46702Y29874D01*
X46800Y29861D01*
X46898Y29874D01*
X46989Y29912D01*
X47068Y29972D01*
X47128Y30051D01*
X47166Y30142D01*
X47179Y30240D01*
X47166Y30338D01*
X47128Y30429D01*
X47068Y30508D01*
X46989Y30568D01*
X46898Y30606D01*
X46800Y30619D01*
D02*
G37*
G36*
X47820Y31519D02*
X47722Y31506D01*
X47631Y31468D01*
X47552Y31408D01*
X47492Y31329D01*
X47454Y31238D01*
X47441Y31140D01*
X47454Y31042D01*
X47492Y30951D01*
X47552Y30872D01*
X47631Y30812D01*
X47722Y30774D01*
X47820Y30761D01*
X47918Y30774D01*
X48009Y30812D01*
X48088Y30872D01*
X48148Y30951D01*
X48186Y31042D01*
X48199Y31140D01*
X48186Y31238D01*
X48148Y31329D01*
X48088Y31408D01*
X48009Y31468D01*
X47918Y31506D01*
X47820Y31519D01*
D02*
G37*
G36*
X49770Y31090D02*
X49445D01*
Y30765D01*
X49770D01*
Y31090D01*
D02*
G37*
G36*
X50195D02*
X49870D01*
Y30765D01*
X50195D01*
Y31090D01*
D02*
G37*
G36*
X44820Y31519D02*
X44722Y31506D01*
X44631Y31468D01*
X44552Y31408D01*
X44492Y31329D01*
X44454Y31238D01*
X44441Y31140D01*
X44454Y31042D01*
X44492Y30951D01*
X44552Y30872D01*
X44631Y30812D01*
X44722Y30774D01*
X44820Y30761D01*
X44918Y30774D01*
X45009Y30812D01*
X45088Y30872D01*
X45148Y30951D01*
X45186Y31042D01*
X45199Y31140D01*
X45186Y31238D01*
X45148Y31329D01*
X45088Y31408D01*
X45009Y31468D01*
X44918Y31506D01*
X44820Y31519D01*
D02*
G37*
G36*
X45820D02*
X45722Y31506D01*
X45631Y31468D01*
X45552Y31408D01*
X45492Y31329D01*
X45454Y31238D01*
X45441Y31140D01*
X45454Y31042D01*
X45492Y30951D01*
X45552Y30872D01*
X45631Y30812D01*
X45722Y30774D01*
X45820Y30761D01*
X45918Y30774D01*
X46009Y30812D01*
X46088Y30872D01*
X46148Y30951D01*
X46186Y31042D01*
X46199Y31140D01*
X46186Y31238D01*
X46148Y31329D01*
X46088Y31408D01*
X46009Y31468D01*
X45918Y31506D01*
X45820Y31519D01*
D02*
G37*
G36*
X46820D02*
X46722Y31506D01*
X46631Y31468D01*
X46552Y31408D01*
X46492Y31329D01*
X46454Y31238D01*
X46441Y31140D01*
X46454Y31042D01*
X46492Y30951D01*
X46552Y30872D01*
X46631Y30812D01*
X46722Y30774D01*
X46820Y30761D01*
X46918Y30774D01*
X47009Y30812D01*
X47088Y30872D01*
X47148Y30951D01*
X47186Y31042D01*
X47199Y31140D01*
X47186Y31238D01*
X47148Y31329D01*
X47088Y31408D01*
X47009Y31468D01*
X46918Y31506D01*
X46820Y31519D01*
D02*
G37*
G36*
X44326Y33070D02*
X44050D01*
Y32794D01*
X44086Y32798D01*
X44166Y32832D01*
X44235Y32885D01*
X44288Y32954D01*
X44322Y33034D01*
X44326Y33070D01*
D02*
G37*
G36*
X49710Y36110D02*
X49388D01*
X49394Y36062D01*
X49432Y35971D01*
X49492Y35892D01*
X49571Y35832D01*
X49662Y35794D01*
X49710Y35788D01*
Y36110D01*
D02*
G37*
G36*
X50132D02*
X49810D01*
Y35788D01*
X49858Y35794D01*
X49949Y35832D01*
X50028Y35892D01*
X50088Y35971D01*
X50126Y36062D01*
X50132Y36110D01*
D02*
G37*
G36*
X49710Y36532D02*
X49662Y36526D01*
X49571Y36488D01*
X49492Y36428D01*
X49432Y36349D01*
X49394Y36258D01*
X49388Y36210D01*
X49710D01*
Y36532D01*
D02*
G37*
G36*
X45310Y35486D02*
X45274Y35482D01*
X45194Y35448D01*
X45125Y35395D01*
X45072Y35326D01*
X45038Y35246D01*
X45034Y35210D01*
X45310D01*
Y35486D01*
D02*
G37*
G36*
X45410D02*
Y35210D01*
X45686D01*
X45682Y35246D01*
X45648Y35326D01*
X45595Y35395D01*
X45526Y35448D01*
X45446Y35482D01*
X45410Y35486D01*
D02*
G37*
G36*
X47312Y35596D02*
X47065D01*
Y35290D01*
X47312D01*
Y35596D01*
D02*
G37*
G36*
X49760Y38539D02*
X49662Y38526D01*
X49571Y38488D01*
X49492Y38428D01*
X49432Y38349D01*
X49394Y38258D01*
X49381Y38160D01*
X49394Y38062D01*
X49432Y37971D01*
X49492Y37892D01*
X49571Y37832D01*
X49662Y37794D01*
X49760Y37781D01*
X49858Y37794D01*
X49949Y37832D01*
X50028Y37892D01*
X50088Y37971D01*
X50126Y38062D01*
X50139Y38160D01*
X50126Y38258D01*
X50088Y38349D01*
X50028Y38428D01*
X49949Y38488D01*
X49858Y38526D01*
X49760Y38539D01*
D02*
G37*
G36*
X48760Y39539D02*
X48662Y39526D01*
X48571Y39488D01*
X48492Y39428D01*
X48432Y39349D01*
X48394Y39258D01*
X48381Y39160D01*
X48394Y39062D01*
X48432Y38971D01*
X48492Y38892D01*
X48571Y38832D01*
X48662Y38794D01*
X48760Y38781D01*
X48858Y38794D01*
X48949Y38832D01*
X49028Y38892D01*
X49088Y38971D01*
X49126Y39062D01*
X49139Y39160D01*
X49126Y39258D01*
X49088Y39349D01*
X49028Y39428D01*
X48949Y39488D01*
X48858Y39526D01*
X48760Y39539D01*
D02*
G37*
G36*
X49760D02*
X49662Y39526D01*
X49571Y39488D01*
X49492Y39428D01*
X49432Y39349D01*
X49394Y39258D01*
X49381Y39160D01*
X49394Y39062D01*
X49432Y38971D01*
X49492Y38892D01*
X49571Y38832D01*
X49662Y38794D01*
X49760Y38781D01*
X49858Y38794D01*
X49949Y38832D01*
X50028Y38892D01*
X50088Y38971D01*
X50126Y39062D01*
X50139Y39160D01*
X50126Y39258D01*
X50088Y39349D01*
X50028Y39428D01*
X49949Y39488D01*
X49858Y39526D01*
X49760Y39539D01*
D02*
G37*
G36*
X49810Y36532D02*
Y36210D01*
X50132D01*
X50126Y36258D01*
X50088Y36349D01*
X50028Y36428D01*
X49949Y36488D01*
X49858Y36526D01*
X49810Y36532D01*
D02*
G37*
G36*
X49760Y37539D02*
X49662Y37526D01*
X49571Y37488D01*
X49492Y37428D01*
X49432Y37349D01*
X49394Y37258D01*
X49381Y37160D01*
X49394Y37062D01*
X49432Y36971D01*
X49492Y36892D01*
X49571Y36832D01*
X49662Y36794D01*
X49760Y36781D01*
X49858Y36794D01*
X49949Y36832D01*
X50028Y36892D01*
X50088Y36971D01*
X50126Y37062D01*
X50139Y37160D01*
X50126Y37258D01*
X50088Y37349D01*
X50028Y37428D01*
X49949Y37488D01*
X49858Y37526D01*
X49760Y37539D01*
D02*
G37*
G36*
X48760Y38539D02*
X48662Y38526D01*
X48571Y38488D01*
X48492Y38428D01*
X48432Y38349D01*
X48394Y38258D01*
X48381Y38160D01*
X48394Y38062D01*
X48432Y37971D01*
X48492Y37892D01*
X48571Y37832D01*
X48662Y37794D01*
X48760Y37781D01*
X48858Y37794D01*
X48949Y37832D01*
X49028Y37892D01*
X49088Y37971D01*
X49126Y38062D01*
X49139Y38160D01*
X49126Y38258D01*
X49088Y38349D01*
X49028Y38428D01*
X48949Y38488D01*
X48858Y38526D01*
X48760Y38539D01*
D02*
G37*
G36*
X47312Y35190D02*
X47065D01*
Y34884D01*
X47312D01*
Y35000D01*
Y35190D01*
D02*
G37*
G36*
X47820Y34519D02*
X47722Y34506D01*
X47631Y34468D01*
X47552Y34408D01*
X47492Y34329D01*
X47454Y34238D01*
X47441Y34140D01*
X47454Y34042D01*
X47492Y33951D01*
X47552Y33872D01*
X47631Y33812D01*
X47722Y33774D01*
X47820Y33761D01*
X47861Y33767D01*
X48487Y33141D01*
X48460Y33099D01*
X48406Y33122D01*
X48370Y33126D01*
Y32850D01*
X48646D01*
X48642Y32886D01*
X48619Y32940D01*
X48661Y32967D01*
D01*
X48954Y32674D01*
X49030Y32623D01*
X49120Y32605D01*
X49120Y32605D01*
X49524D01*
X49525Y32605D01*
X49594Y32552D01*
X49674Y32518D01*
X49760Y32507D01*
X49846Y32518D01*
X49926Y32552D01*
X49995Y32605D01*
X50048Y32674D01*
X50082Y32754D01*
X50093Y32840D01*
X50082Y32926D01*
X50048Y33006D01*
X49995Y33075D01*
X49926Y33128D01*
X49846Y33162D01*
X49760Y33173D01*
X49674Y33162D01*
X49594Y33128D01*
X49525Y33075D01*
X49524Y33075D01*
X49217D01*
X48754Y33538D01*
X48440Y33852D01*
D01*
X48193Y34099D01*
X48199Y34140D01*
X48186Y34238D01*
X48148Y34329D01*
X48088Y34408D01*
X48009Y34468D01*
X47918Y34506D01*
X47820Y34519D01*
D02*
G37*
G36*
X43950Y33446D02*
X43914Y33442D01*
X43834Y33408D01*
X43765Y33355D01*
X43712Y33286D01*
X43678Y33206D01*
X43674Y33170D01*
X43950D01*
Y33446D01*
D02*
G37*
G36*
X46710Y33686D02*
X46674Y33682D01*
X46594Y33648D01*
X46525Y33595D01*
X46472Y33526D01*
X46438Y33446D01*
X46434Y33410D01*
X46710D01*
Y33686D01*
D02*
G37*
G36*
X48270Y33126D02*
X48234Y33122D01*
X48154Y33088D01*
X48085Y33035D01*
X48032Y32966D01*
X47998Y32886D01*
X47994Y32850D01*
X48270D01*
Y33126D01*
D02*
G37*
G36*
X46710Y33310D02*
X46434D01*
X46438Y33274D01*
X46472Y33194D01*
X46525Y33125D01*
X46594Y33072D01*
X46674Y33038D01*
X46710Y33034D01*
Y33310D01*
D02*
G37*
G36*
X47086D02*
X46810D01*
Y33034D01*
X46846Y33038D01*
X46926Y33072D01*
X46995Y33125D01*
X47048Y33194D01*
X47082Y33274D01*
X47086Y33310D01*
D02*
G37*
G36*
X49770Y34512D02*
X49722Y34506D01*
X49631Y34468D01*
X49552Y34408D01*
X49492Y34329D01*
X49454Y34238D01*
X49448Y34190D01*
X49770D01*
Y34512D01*
D02*
G37*
G36*
X49870D02*
Y34190D01*
X50192D01*
X50186Y34238D01*
X50148Y34329D01*
X50088Y34408D01*
X50009Y34468D01*
X49918Y34506D01*
X49870Y34512D01*
D02*
G37*
G36*
X50135Y35415D02*
X49385D01*
Y35000D01*
Y34665D01*
X50135D01*
Y35000D01*
Y35415D01*
D02*
G37*
G36*
X46810Y33686D02*
Y33410D01*
X47086D01*
X47082Y33446D01*
X47048Y33526D01*
X46995Y33595D01*
X46926Y33648D01*
X46846Y33682D01*
X46810Y33686D01*
D02*
G37*
G36*
X49770Y34090D02*
X49448D01*
X49454Y34042D01*
X49492Y33951D01*
X49552Y33872D01*
X49631Y33812D01*
X49722Y33774D01*
X49770Y33768D01*
Y34090D01*
D02*
G37*
G36*
X50192D02*
X49870D01*
Y33768D01*
X49918Y33774D01*
X50009Y33812D01*
X50088Y33872D01*
X50148Y33951D01*
X50186Y34042D01*
X50192Y34090D01*
D02*
G37*
%LPD*%
D10*
X47015Y35240D02*
D03*
X46425D02*
D03*
D11*
X44743Y37307D02*
X45494D01*
X43730Y38320D02*
X44743Y37307D01*
X43680Y38320D02*
X43730D01*
D12*
X45650Y36640D02*
X46634D01*
X44840D02*
X45650D01*
X44429Y37051D02*
X44840Y36640D01*
X44040Y37051D02*
X44429D01*
X42040Y32411D02*
Y33034D01*
X43820Y31140D02*
X44771Y32091D01*
X44773D01*
X45041Y32359D01*
Y32841D01*
X44370Y33512D02*
X45041Y32841D01*
X44370Y33512D02*
Y34327D01*
X44446Y34403D01*
Y35246D01*
X47840Y35240D02*
X48860Y34220D01*
X47840Y35240D02*
Y37280D01*
X47483Y37637D02*
X47840Y37280D01*
X45073Y37637D02*
X47483D01*
X48200Y36720D02*
X48760Y36160D01*
X48200Y36720D02*
Y37480D01*
X47760Y37920D02*
X48200Y37480D01*
X45480Y37920D02*
X47760D01*
X45360Y38040D02*
X45480Y37920D01*
X46280Y38400D02*
Y39720D01*
X46120Y39880D02*
X46280Y39720D01*
X43375Y39880D02*
X46120D01*
X42080Y38585D02*
X43375Y39880D01*
X46880Y38400D02*
Y39840D01*
X46560Y40160D02*
X46880Y39840D01*
X43040Y40160D02*
X46560D01*
X42253Y39373D02*
X43040Y40160D01*
X42080Y39373D02*
X42253D01*
X43840Y36360D02*
X43960Y36480D01*
X43641Y36360D02*
X43840D01*
X42820Y35539D02*
X43641Y36360D01*
X42820Y34140D02*
Y35539D01*
X46634Y35450D02*
Y36640D01*
X46425Y34535D02*
Y35240D01*
Y34535D02*
X46820Y34140D01*
D13*
X44040Y35989D02*
X45510D01*
X49120Y32840D02*
X49760D01*
X47820Y34140D02*
X49120Y32840D01*
X48840Y29880D02*
Y30280D01*
Y29880D02*
X49040Y29680D01*
X44820Y34140D02*
X46960Y32000D01*
X43320Y35268D02*
X44040Y35989D01*
X49040Y29680D02*
X50200D01*
X50600Y30080D01*
X46960Y32000D02*
X50160D01*
X50600Y31560D01*
Y30080D02*
Y31560D01*
D14*
X43320Y33800D02*
X44000Y33120D01*
D15*
X43320Y33800D02*
Y35268D01*
D16*
X50741Y40160D02*
D03*
Y39373D02*
D03*
Y38585D02*
D03*
Y37798D02*
D03*
Y37011D02*
D03*
Y36223D02*
D03*
Y35436D02*
D03*
Y34649D02*
D03*
Y33861D02*
D03*
Y33074D02*
D03*
X42080D02*
D03*
Y33861D02*
D03*
Y34649D02*
D03*
Y35436D02*
D03*
Y36223D02*
D03*
Y37011D02*
D03*
Y37798D02*
D03*
Y38585D02*
D03*
Y39373D02*
D03*
D17*
Y40160D02*
D03*
D18*
X44800Y30240D02*
D03*
X42800D02*
D03*
X47800D02*
D03*
X49760D02*
D03*
Y35040D02*
D03*
D19*
X45800Y30240D02*
D03*
X43800D02*
D03*
X46800D02*
D03*
X48760D02*
D03*
X42820Y34140D02*
D03*
X43820D02*
D03*
X44820D02*
D03*
X45820D02*
D03*
X46820D02*
D03*
X47820D02*
D03*
X48820D02*
D03*
X49820D02*
D03*
X42820Y31140D02*
D03*
X43820D02*
D03*
X44820D02*
D03*
X45820D02*
D03*
X46820D02*
D03*
X47820D02*
D03*
X48820D02*
D03*
X49760Y40160D02*
D03*
X48760D02*
D03*
X49760Y39160D02*
D03*
X48760D02*
D03*
X49760Y38160D02*
D03*
X48760D02*
D03*
X49760Y37160D02*
D03*
X48760D02*
D03*
X49760Y36160D02*
D03*
X48760Y35040D02*
D03*
D20*
X49820Y31140D02*
D03*
X48760Y36160D02*
D03*
D21*
X45360Y35160D02*
D03*
X49760Y32840D02*
D03*
X44446Y35246D02*
D03*
X43680Y38320D02*
D03*
X45880Y32120D02*
D03*
X48320Y32800D02*
D03*
X44000Y33120D02*
D03*
X46760Y33360D02*
D03*
D22*
X45360Y38040D02*
D03*
X45073Y37637D02*
D03*
X46880Y38400D02*
D03*
X46280D02*
D03*
M02*
