%FSLAX24Y24*%
%MOIN*%
G70*
G01*
G75*
G04 Layer_Physical_Order=2*
G04 Layer_Color=16711680*
%ADD10R,0.0433X0.0551*%
%ADD11C,0.0100*%
%ADD12C,0.0150*%
%ADD13C,0.0300*%
%ADD14C,0.0250*%
%ADD15C,0.0200*%
%ADD16C,0.0580*%
%ADD17R,0.0580X0.0580*%
%ADD18R,0.0591X0.0591*%
%ADD19C,0.0591*%
%ADD20R,0.0591X0.0591*%
%ADD21C,0.0500*%
%ADD22C,0.0400*%
%ADD23R,0.0618X0.0906*%
%ADD24R,0.0276X0.0354*%
%ADD25R,0.0354X0.0276*%
%ADD26R,0.0315X0.0315*%
%ADD27O,0.0532X0.0217*%
%ADD28O,0.0217X0.0532*%
%ADD29R,0.0236X0.0551*%
%ADD30R,0.0236X0.0354*%
G04:AMPARAMS|DCode=31|XSize=70.9mil|YSize=141.7mil|CornerRadius=0mil|HoleSize=0mil|Usage=FLASHONLY|Rotation=0.000|XOffset=0mil|YOffset=0mil|HoleType=Round|Shape=Octagon|*
%AMOCTAGOND31*
4,1,8,-0.0177,0.0709,0.0177,0.0709,0.0354,0.0532,0.0354,-0.0532,0.0177,-0.0709,-0.0177,-0.0709,-0.0354,-0.0532,-0.0354,0.0532,-0.0177,0.0709,0.0*
%
%ADD31OCTAGOND31*%

%ADD32R,0.0315X0.0315*%
G36*
X51040Y40453D02*
X50995Y40431D01*
X50927Y40483D01*
X50837Y40520D01*
X50741Y40533D01*
X50644Y40520D01*
X50554Y40483D01*
X50477Y40424D01*
X50417Y40347D01*
X50380Y40257D01*
X50367Y40160D01*
X50380Y40063D01*
X50417Y39973D01*
X50477Y39896D01*
X50554Y39837D01*
X50644Y39800D01*
X50706Y39791D01*
Y39741D01*
X50644Y39733D01*
X50554Y39696D01*
X50477Y39637D01*
X50417Y39559D01*
X50380Y39469D01*
X50367Y39373D01*
X50380Y39276D01*
X50417Y39186D01*
X50477Y39109D01*
X50554Y39049D01*
X50644Y39012D01*
X50706Y39004D01*
Y38954D01*
X50644Y38946D01*
X50554Y38909D01*
X50477Y38849D01*
X50417Y38772D01*
X50380Y38682D01*
X50367Y38585D01*
X50380Y38489D01*
X50417Y38399D01*
X50477Y38321D01*
X50554Y38262D01*
X50644Y38225D01*
X50706Y38217D01*
Y38167D01*
X50644Y38158D01*
X50554Y38121D01*
X50477Y38062D01*
X50417Y37985D01*
X50380Y37895D01*
X50367Y37798D01*
X50380Y37701D01*
X50417Y37611D01*
X50477Y37534D01*
X50554Y37475D01*
X50644Y37438D01*
X50706Y37429D01*
Y37379D01*
X50644Y37371D01*
X50554Y37334D01*
X50477Y37275D01*
X50417Y37197D01*
X50380Y37107D01*
X50367Y37011D01*
X50380Y36914D01*
X50417Y36824D01*
X50477Y36747D01*
X50554Y36687D01*
X50644Y36650D01*
X50706Y36642D01*
Y36592D01*
X50644Y36584D01*
X50554Y36547D01*
X50477Y36487D01*
X50417Y36410D01*
X50380Y36320D01*
X50367Y36223D01*
X50380Y36127D01*
X50417Y36037D01*
X50477Y35959D01*
X50554Y35900D01*
X50644Y35863D01*
X50706Y35855D01*
Y35805D01*
X50644Y35796D01*
X50554Y35759D01*
X50477Y35700D01*
X50417Y35623D01*
X50380Y35533D01*
X50367Y35436D01*
X50380Y35339D01*
X50417Y35249D01*
X50477Y35172D01*
X50554Y35113D01*
X50644Y35076D01*
X50706Y35067D01*
Y35017D01*
X50644Y35009D01*
X50554Y34972D01*
X50477Y34913D01*
X50417Y34835D01*
X50380Y34745D01*
X50367Y34649D01*
X50380Y34552D01*
X50417Y34462D01*
X50477Y34385D01*
X50554Y34325D01*
X50644Y34288D01*
X50706Y34280D01*
Y34230D01*
X50644Y34222D01*
X50554Y34185D01*
X50477Y34125D01*
X50417Y34048D01*
X50380Y33958D01*
X50367Y33861D01*
X50380Y33765D01*
X50417Y33675D01*
X50477Y33597D01*
X50554Y33538D01*
X50644Y33501D01*
X50706Y33493D01*
Y33443D01*
X50644Y33434D01*
X50554Y33397D01*
X50477Y33338D01*
X50417Y33261D01*
X50380Y33171D01*
X50367Y33074D01*
X50380Y32977D01*
X50417Y32887D01*
X50477Y32810D01*
X50554Y32751D01*
X50644Y32714D01*
X50741Y32701D01*
X50837Y32714D01*
X50927Y32751D01*
X50995Y32803D01*
X51040Y32781D01*
Y29857D01*
X51000Y29841D01*
Y29841D01*
X51000Y29841D01*
X50135D01*
Y29841D01*
Y29865D01*
X50135Y29876D01*
X50135Y29876D01*
X50135D01*
Y30045D01*
X50320D01*
X50410Y30063D01*
X50486Y30114D01*
X50806Y30434D01*
X50806Y30434D01*
X50806Y30434D01*
X50857Y30510D01*
X50875Y30600D01*
Y31960D01*
X50857Y32050D01*
X50806Y32126D01*
X50093Y32839D01*
X50093Y32840D01*
X50082Y32926D01*
X50048Y33006D01*
X49995Y33075D01*
X49926Y33128D01*
X49846Y33162D01*
X49760Y33173D01*
X49674Y33162D01*
X49594Y33128D01*
X49525Y33075D01*
X49485Y33024D01*
X49438Y33040D01*
Y33135D01*
X49932Y33628D01*
X49966Y33680D01*
X49978Y33740D01*
X49978Y33740D01*
X49978Y33740D01*
Y33740D01*
Y33799D01*
X50009Y33812D01*
X50088Y33872D01*
X50148Y33951D01*
X50186Y34042D01*
X50199Y34140D01*
X50186Y34238D01*
X50148Y34329D01*
X50088Y34408D01*
X50009Y34468D01*
X49918Y34506D01*
X49820Y34519D01*
X49722Y34506D01*
X49631Y34468D01*
X49552Y34408D01*
X49492Y34329D01*
X49454Y34238D01*
X49441Y34140D01*
X49454Y34042D01*
X49492Y33951D01*
X49552Y33872D01*
X49622Y33819D01*
X49625Y33769D01*
X49168Y33312D01*
X49134Y33260D01*
X49122Y33200D01*
Y31680D01*
X49122Y31680D01*
X49122D01*
X49134Y31620D01*
X49168Y31568D01*
X49445Y31292D01*
Y30765D01*
X50195D01*
Y31515D01*
X49668D01*
X49438Y31745D01*
Y32640D01*
X49485Y32656D01*
X49525Y32605D01*
X49594Y32552D01*
X49674Y32518D01*
X49760Y32507D01*
X49761Y32507D01*
X50405Y31863D01*
Y30697D01*
X50223Y30515D01*
X50135D01*
Y30615D01*
X49385D01*
Y29876D01*
X49385Y29876D01*
X49385D01*
X49385Y29865D01*
X49361Y29841D01*
X48906D01*
X48896Y29890D01*
X48949Y29912D01*
X49028Y29972D01*
X49088Y30051D01*
X49126Y30142D01*
X49139Y30240D01*
X49126Y30338D01*
X49088Y30429D01*
X49028Y30508D01*
X48949Y30568D01*
X48858Y30606D01*
X48760Y30619D01*
X48662Y30606D01*
X48571Y30568D01*
X48492Y30508D01*
X48432Y30429D01*
X48394Y30338D01*
X48381Y30240D01*
X48394Y30142D01*
X48432Y30051D01*
X48492Y29972D01*
X48571Y29912D01*
X48624Y29890D01*
X48614Y29841D01*
X48175D01*
Y29841D01*
Y29865D01*
X48175Y29876D01*
X48175Y29876D01*
X48175D01*
Y30615D01*
X48055D01*
Y30847D01*
X48088Y30872D01*
X48148Y30951D01*
X48186Y31042D01*
X48199Y31140D01*
X48186Y31238D01*
X48148Y31329D01*
X48088Y31408D01*
X48009Y31468D01*
X47918Y31506D01*
X47820Y31519D01*
X47722Y31506D01*
X47631Y31468D01*
X47552Y31408D01*
X47492Y31329D01*
X47454Y31238D01*
X47441Y31140D01*
X47454Y31042D01*
X47492Y30951D01*
X47552Y30872D01*
X47585Y30847D01*
Y30615D01*
X47425D01*
Y29876D01*
X47425Y29876D01*
X47425D01*
X47425Y29865D01*
X47401Y29841D01*
X46946D01*
X46936Y29890D01*
X46989Y29912D01*
X47068Y29972D01*
X47128Y30051D01*
X47166Y30142D01*
X47172Y30190D01*
X46428D01*
X46434Y30142D01*
X46472Y30051D01*
X46532Y29972D01*
X46611Y29912D01*
X46664Y29890D01*
X46654Y29841D01*
X45946D01*
X45936Y29890D01*
X45989Y29912D01*
X46068Y29972D01*
X46128Y30051D01*
X46166Y30142D01*
X46172Y30190D01*
X45428D01*
X45434Y30142D01*
X45472Y30051D01*
X45532Y29972D01*
X45611Y29912D01*
X45664Y29890D01*
X45654Y29841D01*
X45175D01*
Y29841D01*
Y29865D01*
X45175Y29876D01*
X45175Y29876D01*
X45175D01*
Y30615D01*
X45055D01*
Y30847D01*
X45088Y30872D01*
X45148Y30951D01*
X45186Y31042D01*
X45199Y31140D01*
X45186Y31238D01*
X45148Y31329D01*
X45088Y31408D01*
X45009Y31468D01*
X44918Y31506D01*
X44820Y31519D01*
X44722Y31506D01*
X44631Y31468D01*
X44552Y31408D01*
X44492Y31329D01*
X44454Y31238D01*
X44441Y31140D01*
X44454Y31042D01*
X44492Y30951D01*
X44552Y30872D01*
X44585Y30847D01*
Y30615D01*
X44425D01*
Y29876D01*
X44425Y29876D01*
X44425D01*
X44425Y29865D01*
X44401Y29841D01*
X43946D01*
X43936Y29890D01*
X43989Y29912D01*
X44068Y29972D01*
X44128Y30051D01*
X44166Y30142D01*
X44172Y30190D01*
X43428D01*
X43434Y30142D01*
X43472Y30051D01*
X43532Y29972D01*
X43611Y29912D01*
X43664Y29890D01*
X43654Y29841D01*
X43175D01*
Y29841D01*
Y29865D01*
X43175Y29876D01*
X43175Y29876D01*
X43175D01*
Y30615D01*
X42425D01*
Y30555D01*
X42257D01*
X42115Y30697D01*
Y31663D01*
X42137Y31685D01*
X42780D01*
Y31627D01*
X43558D01*
Y32587D01*
Y33653D01*
X42780D01*
Y32587D01*
Y32155D01*
X42040D01*
X41950Y32137D01*
X41874Y32086D01*
X41714Y31926D01*
X41688Y31886D01*
X41640Y31901D01*
Y40558D01*
X41720Y40640D01*
X51040D01*
Y40453D01*
D02*
G37*
%LPC*%
G36*
X47470Y31961D02*
X47322D01*
Y31754D01*
X47470D01*
Y31961D01*
D02*
G37*
G36*
X47718D02*
X47570D01*
Y31754D01*
X47718D01*
Y31961D01*
D02*
G37*
G36*
X42030Y33024D02*
X41713D01*
X41720Y32977D01*
X41757Y32887D01*
X41816Y32810D01*
X41893Y32751D01*
X41983Y32714D01*
X42030Y32707D01*
Y33024D01*
D02*
G37*
G36*
X45870Y31512D02*
Y31190D01*
X46192D01*
X46186Y31238D01*
X46148Y31329D01*
X46088Y31408D01*
X46009Y31468D01*
X45918Y31506D01*
X45870Y31512D01*
D02*
G37*
G36*
X46770D02*
X46722Y31506D01*
X46631Y31468D01*
X46552Y31408D01*
X46492Y31329D01*
X46454Y31238D01*
X46448Y31190D01*
X46770D01*
Y31512D01*
D02*
G37*
G36*
X46870D02*
Y31190D01*
X47192D01*
X47186Y31238D01*
X47148Y31329D01*
X47088Y31408D01*
X47009Y31468D01*
X46918Y31506D01*
X46870Y31512D01*
D02*
G37*
G36*
X45697Y33325D02*
X45490D01*
Y33157D01*
X45697D01*
Y33325D01*
D02*
G37*
G36*
Y33593D02*
X45490D01*
Y33425D01*
X45697D01*
Y33593D01*
D02*
G37*
G36*
X46760Y33693D02*
X46674Y33682D01*
X46594Y33648D01*
X46525Y33595D01*
X46500Y33563D01*
X46397D01*
Y33642D01*
X45923D01*
Y33167D01*
X46397D01*
Y33247D01*
X46450D01*
X46472Y33194D01*
X46525Y33125D01*
X46594Y33072D01*
X46674Y33038D01*
X46760Y33027D01*
X46846Y33038D01*
X46926Y33072D01*
X46995Y33125D01*
X47038Y33181D01*
X47086Y33165D01*
Y32947D01*
X47470D01*
Y33686D01*
X47303D01*
X47108Y33491D01*
X47059Y33501D01*
X47048Y33526D01*
X46995Y33595D01*
X46926Y33648D01*
X46846Y33682D01*
X46760Y33693D01*
D02*
G37*
G36*
X42447Y33024D02*
X42130D01*
Y32707D01*
X42177Y32714D01*
X42267Y32751D01*
X42344Y32810D01*
X42403Y32887D01*
X42440Y32977D01*
X42447Y33024D01*
D02*
G37*
G36*
X42030Y33441D02*
X41983Y33434D01*
X41893Y33397D01*
X41816Y33338D01*
X41757Y33261D01*
X41720Y33171D01*
X41713Y33124D01*
X42030D01*
Y33441D01*
D02*
G37*
G36*
X42130D02*
Y33124D01*
X42447D01*
X42440Y33171D01*
X42403Y33261D01*
X42344Y33338D01*
X42267Y33397D01*
X42177Y33434D01*
X42130Y33441D01*
D02*
G37*
G36*
X45770Y31512D02*
X45722Y31506D01*
X45631Y31468D01*
X45552Y31408D01*
X45492Y31329D01*
X45454Y31238D01*
X45448Y31190D01*
X45770D01*
Y31512D01*
D02*
G37*
G36*
X45850Y30612D02*
Y30290D01*
X46172D01*
X46166Y30338D01*
X46128Y30429D01*
X46068Y30508D01*
X45989Y30568D01*
X45898Y30606D01*
X45850Y30612D01*
D02*
G37*
G36*
X46750D02*
X46702Y30606D01*
X46611Y30568D01*
X46532Y30508D01*
X46472Y30429D01*
X46434Y30338D01*
X46428Y30290D01*
X46750D01*
Y30612D01*
D02*
G37*
G36*
X46850D02*
Y30290D01*
X47172D01*
X47166Y30338D01*
X47128Y30429D01*
X47068Y30508D01*
X46989Y30568D01*
X46898Y30606D01*
X46850Y30612D01*
D02*
G37*
G36*
X43750D02*
X43702Y30606D01*
X43611Y30568D01*
X43532Y30508D01*
X43472Y30429D01*
X43434Y30338D01*
X43428Y30290D01*
X43750D01*
Y30612D01*
D02*
G37*
G36*
X43850D02*
Y30290D01*
X44172D01*
X44166Y30338D01*
X44128Y30429D01*
X44068Y30508D01*
X43989Y30568D01*
X43898Y30606D01*
X43850Y30612D01*
D02*
G37*
G36*
X45750D02*
X45702Y30606D01*
X45611Y30568D01*
X45532Y30508D01*
X45472Y30429D01*
X45434Y30338D01*
X45428Y30290D01*
X45750D01*
Y30612D01*
D02*
G37*
G36*
X46192Y31090D02*
X45870D01*
Y30768D01*
X45918Y30774D01*
X46009Y30812D01*
X46088Y30872D01*
X46148Y30951D01*
X46186Y31042D01*
X46192Y31090D01*
D02*
G37*
G36*
X46770D02*
X46448D01*
X46454Y31042D01*
X46492Y30951D01*
X46552Y30872D01*
X46631Y30812D01*
X46722Y30774D01*
X46770Y30768D01*
Y31090D01*
D02*
G37*
G36*
X47192D02*
X46870D01*
Y30768D01*
X46918Y30774D01*
X47009Y30812D01*
X47088Y30872D01*
X47148Y30951D01*
X47186Y31042D01*
X47192Y31090D01*
D02*
G37*
G36*
X42820Y31519D02*
X42722Y31506D01*
X42631Y31468D01*
X42552Y31408D01*
X42492Y31329D01*
X42454Y31238D01*
X42441Y31140D01*
X42454Y31042D01*
X42492Y30951D01*
X42552Y30872D01*
X42631Y30812D01*
X42722Y30774D01*
X42820Y30761D01*
X42918Y30774D01*
X43009Y30812D01*
X43088Y30872D01*
X43148Y30951D01*
X43186Y31042D01*
X43199Y31140D01*
X43186Y31238D01*
X43148Y31329D01*
X43088Y31408D01*
X43009Y31468D01*
X42918Y31506D01*
X42820Y31519D01*
D02*
G37*
G36*
X43820D02*
X43722Y31506D01*
X43631Y31468D01*
X43552Y31408D01*
X43492Y31329D01*
X43454Y31238D01*
X43441Y31140D01*
X43454Y31042D01*
X43492Y30951D01*
X43552Y30872D01*
X43631Y30812D01*
X43722Y30774D01*
X43820Y30761D01*
X43918Y30774D01*
X44009Y30812D01*
X44088Y30872D01*
X44148Y30951D01*
X44186Y31042D01*
X44199Y31140D01*
X44186Y31238D01*
X44148Y31329D01*
X44088Y31408D01*
X44009Y31468D01*
X43918Y31506D01*
X43820Y31519D01*
D02*
G37*
G36*
X45770Y31090D02*
X45448D01*
X45454Y31042D01*
X45492Y30951D01*
X45552Y30872D01*
X45631Y30812D01*
X45722Y30774D01*
X45770Y30768D01*
Y31090D01*
D02*
G37*
G36*
Y34090D02*
X45448D01*
X45454Y34042D01*
X45492Y33951D01*
X45552Y33872D01*
X45631Y33812D01*
X45722Y33774D01*
X45770Y33768D01*
Y34090D01*
D02*
G37*
G36*
X49710Y39110D02*
X49388D01*
X49394Y39062D01*
X49432Y38971D01*
X49492Y38892D01*
X49571Y38832D01*
X49662Y38794D01*
X49710Y38788D01*
Y39110D01*
D02*
G37*
G36*
X50132D02*
X49810D01*
Y38788D01*
X49858Y38794D01*
X49949Y38832D01*
X50028Y38892D01*
X50088Y38971D01*
X50126Y39062D01*
X50132Y39110D01*
D02*
G37*
G36*
X49710Y39532D02*
X49662Y39526D01*
X49571Y39488D01*
X49492Y39428D01*
X49432Y39349D01*
X49394Y39258D01*
X49388Y39210D01*
X49710D01*
Y39532D01*
D02*
G37*
G36*
X48760Y40539D02*
X48662Y40526D01*
X48571Y40488D01*
X48492Y40428D01*
X48432Y40349D01*
X48419Y40318D01*
X45000D01*
X44940Y40306D01*
X44888Y40272D01*
X44328Y39712D01*
X44294Y39660D01*
X44282Y39600D01*
Y38773D01*
X44215Y38760D01*
X44153Y38718D01*
X44111Y38656D01*
X44097Y38582D01*
X44111Y38509D01*
X44153Y38447D01*
Y38403D01*
X44111Y38341D01*
X44097Y38267D01*
X44111Y38194D01*
X44138Y38155D01*
X44114Y38110D01*
X44000D01*
X43993Y38109D01*
X43967Y38152D01*
X43968Y38154D01*
X44002Y38234D01*
X44013Y38320D01*
X44002Y38406D01*
X43968Y38486D01*
X43915Y38555D01*
X43846Y38608D01*
X43786Y38633D01*
X43795Y38683D01*
X43962D01*
Y39157D01*
X43857D01*
Y39223D01*
X43953D01*
Y39737D01*
X43632D01*
Y39764D01*
X43632D01*
Y40070D01*
X43335D01*
Y40120D01*
X43285D01*
Y40476D01*
X42450D01*
Y40530D01*
X41710D01*
Y39790D01*
X42033D01*
X42036Y39740D01*
X41983Y39733D01*
X41893Y39696D01*
X41816Y39637D01*
X41757Y39559D01*
X41720Y39469D01*
X41707Y39373D01*
X41720Y39276D01*
X41757Y39186D01*
X41816Y39109D01*
X41893Y39049D01*
X41983Y39012D01*
X42046Y39004D01*
Y38954D01*
X41983Y38946D01*
X41893Y38909D01*
X41816Y38849D01*
X41757Y38772D01*
X41720Y38682D01*
X41707Y38585D01*
X41720Y38489D01*
X41757Y38399D01*
X41816Y38321D01*
X41893Y38262D01*
X41983Y38225D01*
X42046Y38217D01*
Y38167D01*
X41983Y38158D01*
X41893Y38121D01*
X41816Y38062D01*
X41757Y37985D01*
X41720Y37895D01*
X41707Y37798D01*
X41720Y37701D01*
X41757Y37611D01*
X41816Y37534D01*
X41893Y37475D01*
X41983Y37438D01*
X42046Y37429D01*
Y37379D01*
X41983Y37371D01*
X41893Y37334D01*
X41816Y37275D01*
X41757Y37197D01*
X41720Y37107D01*
X41707Y37011D01*
X41720Y36914D01*
X41757Y36824D01*
X41816Y36747D01*
X41893Y36687D01*
X41983Y36650D01*
X42046Y36642D01*
Y36592D01*
X41983Y36584D01*
X41893Y36547D01*
X41816Y36487D01*
X41757Y36410D01*
X41720Y36320D01*
X41707Y36223D01*
X41720Y36127D01*
X41757Y36037D01*
X41816Y35959D01*
X41893Y35900D01*
X41983Y35863D01*
X42046Y35855D01*
Y35805D01*
X41983Y35796D01*
X41893Y35759D01*
X41816Y35700D01*
X41757Y35623D01*
X41720Y35533D01*
X41707Y35436D01*
X41720Y35339D01*
X41757Y35249D01*
X41816Y35172D01*
X41893Y35113D01*
X41983Y35076D01*
X42046Y35067D01*
Y35017D01*
X41983Y35009D01*
X41893Y34972D01*
X41816Y34913D01*
X41757Y34835D01*
X41720Y34745D01*
X41707Y34649D01*
X41720Y34552D01*
X41757Y34462D01*
X41816Y34385D01*
X41893Y34325D01*
X41983Y34288D01*
X42046Y34280D01*
Y34230D01*
X41983Y34222D01*
X41893Y34185D01*
X41816Y34125D01*
X41757Y34048D01*
X41720Y33958D01*
X41707Y33861D01*
X41720Y33765D01*
X41757Y33675D01*
X41816Y33597D01*
X41893Y33538D01*
X41983Y33501D01*
X42046Y33493D01*
Y33491D01*
X42058D01*
X42080Y33488D01*
X42102Y33491D01*
X42114D01*
Y33493D01*
X42177Y33501D01*
X42267Y33538D01*
X42344Y33597D01*
X42403Y33675D01*
X42440Y33765D01*
X42453Y33861D01*
X42443Y33941D01*
X42491Y33953D01*
X42492Y33951D01*
X42552Y33872D01*
X42631Y33812D01*
X42722Y33774D01*
X42820Y33761D01*
X42918Y33774D01*
X43009Y33812D01*
X43088Y33872D01*
X43148Y33951D01*
X43186Y34042D01*
X43199Y34140D01*
X43186Y34238D01*
X43148Y34329D01*
X43088Y34408D01*
X43009Y34468D01*
X42918Y34506D01*
X42820Y34519D01*
X42722Y34506D01*
X42631Y34468D01*
X42552Y34408D01*
X42492Y34329D01*
X42454Y34238D01*
X42441Y34140D01*
X42452Y34059D01*
X42404Y34046D01*
X42403Y34048D01*
X42344Y34125D01*
X42267Y34185D01*
X42177Y34222D01*
X42114Y34230D01*
Y34280D01*
X42177Y34288D01*
X42267Y34325D01*
X42344Y34385D01*
X42403Y34462D01*
X42440Y34552D01*
X42453Y34649D01*
X42440Y34745D01*
X42403Y34835D01*
X42344Y34913D01*
X42267Y34972D01*
X42177Y35009D01*
X42114Y35017D01*
Y35067D01*
X42177Y35076D01*
X42267Y35113D01*
X42344Y35172D01*
X42403Y35249D01*
X42440Y35339D01*
X42453Y35436D01*
X42440Y35533D01*
X42403Y35623D01*
X42344Y35700D01*
X42267Y35759D01*
X42177Y35796D01*
X42114Y35805D01*
Y35855D01*
X42177Y35863D01*
X42267Y35900D01*
X42344Y35959D01*
X42403Y36037D01*
X42440Y36127D01*
X42453Y36223D01*
X42440Y36320D01*
X42403Y36410D01*
X42344Y36487D01*
X42267Y36547D01*
X42177Y36584D01*
X42114Y36592D01*
Y36642D01*
X42177Y36650D01*
X42267Y36687D01*
X42344Y36747D01*
X42403Y36824D01*
X42440Y36914D01*
X42453Y37011D01*
X42440Y37107D01*
X42403Y37197D01*
X42344Y37275D01*
X42267Y37334D01*
X42177Y37371D01*
X42114Y37379D01*
Y37429D01*
X42177Y37438D01*
X42267Y37475D01*
X42344Y37534D01*
X42403Y37611D01*
X42440Y37701D01*
X42453Y37798D01*
X42440Y37895D01*
X42403Y37985D01*
X42344Y38062D01*
X42267Y38121D01*
X42177Y38158D01*
X42114Y38167D01*
Y38217D01*
X42177Y38225D01*
X42267Y38262D01*
X42344Y38321D01*
X42403Y38399D01*
X42440Y38489D01*
X42453Y38585D01*
X42440Y38682D01*
X42403Y38772D01*
X42344Y38849D01*
X42267Y38909D01*
X42177Y38946D01*
X42114Y38954D01*
Y39004D01*
X42177Y39012D01*
X42267Y39049D01*
X42344Y39109D01*
X42403Y39186D01*
X42440Y39276D01*
X42453Y39373D01*
X42440Y39469D01*
X42403Y39559D01*
X42344Y39637D01*
X42267Y39696D01*
X42177Y39733D01*
X42124Y39740D01*
X42127Y39790D01*
X42448D01*
Y39764D01*
X42612D01*
Y39250D01*
X42622Y39200D01*
X42651Y39157D01*
X42651Y39157D01*
X42651Y39157D01*
X42838Y38970D01*
Y38683D01*
X43130D01*
X43373Y38440D01*
X43358Y38406D01*
X43347Y38320D01*
X43358Y38234D01*
X43392Y38154D01*
X43445Y38085D01*
X43514Y38032D01*
X43594Y37998D01*
X43680Y37987D01*
X43754Y37997D01*
X43776Y37952D01*
X43678Y37854D01*
X43644Y37803D01*
X43632Y37742D01*
Y35240D01*
Y34468D01*
X43631Y34468D01*
X43552Y34408D01*
X43492Y34329D01*
X43454Y34238D01*
X43441Y34140D01*
X43454Y34042D01*
X43492Y33951D01*
X43552Y33872D01*
X43631Y33812D01*
X43722Y33774D01*
X43820Y33761D01*
X43918Y33774D01*
X44009Y33812D01*
X44088Y33872D01*
X44148Y33951D01*
X44186Y34042D01*
X44199Y34140D01*
X44186Y34238D01*
X44148Y34329D01*
X44088Y34408D01*
X44009Y34468D01*
X43948Y34493D01*
Y34883D01*
X43994Y34902D01*
X44408Y34488D01*
X44459Y34454D01*
X44520Y34442D01*
X44522D01*
X44544Y34397D01*
X44492Y34329D01*
X44454Y34238D01*
X44441Y34140D01*
X44454Y34042D01*
X44492Y33951D01*
X44552Y33872D01*
X44631Y33812D01*
X44722Y33774D01*
X44820Y33761D01*
X44918Y33774D01*
X45009Y33812D01*
X45088Y33872D01*
X45148Y33951D01*
X45186Y34042D01*
X45199Y34140D01*
X45186Y34238D01*
X45148Y34329D01*
X45096Y34397D01*
X45118Y34442D01*
X45522D01*
X45544Y34397D01*
X45492Y34329D01*
X45454Y34238D01*
X45448Y34190D01*
X46192D01*
X46186Y34238D01*
X46148Y34329D01*
X46096Y34397D01*
X46118Y34442D01*
X46522D01*
X46544Y34397D01*
X46492Y34329D01*
X46454Y34238D01*
X46448Y34190D01*
X47192D01*
X47186Y34238D01*
X47148Y34329D01*
X47096Y34397D01*
X47118Y34442D01*
X47522D01*
X47544Y34397D01*
X47492Y34329D01*
X47454Y34238D01*
X47441Y34140D01*
X47454Y34042D01*
X47492Y33951D01*
X47552Y33872D01*
X47631Y33812D01*
X47722Y33774D01*
X47820Y33761D01*
X47918Y33774D01*
X48009Y33812D01*
X48088Y33872D01*
X48148Y33951D01*
X48163Y33987D01*
X48212Y33977D01*
Y33690D01*
X48212Y33690D01*
X48212D01*
X48224Y33629D01*
X48258Y33578D01*
X48662Y33174D01*
Y32965D01*
X48613Y32955D01*
X48608Y32966D01*
X48555Y33035D01*
X48486Y33088D01*
X48406Y33122D01*
X48320Y33133D01*
X48234Y33122D01*
X48154Y33088D01*
X48085Y33035D01*
X48032Y32966D01*
X48003Y32898D01*
X47954Y32908D01*
Y33469D01*
X47737Y33686D01*
X47570D01*
Y32897D01*
X47520D01*
Y32847D01*
X47086D01*
Y32465D01*
X46731D01*
Y32355D01*
X46116D01*
X46115Y32355D01*
X46046Y32408D01*
X45966Y32442D01*
X45880Y32453D01*
X45794Y32442D01*
X45714Y32408D01*
X45696Y32395D01*
X45140D01*
Y32567D01*
X45183D01*
Y32567D01*
X45697D01*
Y32667D01*
X45923D01*
Y32518D01*
X46397D01*
Y32672D01*
X46431Y32679D01*
X46482Y32713D01*
X46516Y32764D01*
X46529Y32825D01*
X46516Y32885D01*
X46482Y32936D01*
X46431Y32971D01*
X46397Y32977D01*
Y32993D01*
X45923D01*
Y32983D01*
X45697D01*
Y33003D01*
X45183D01*
Y33003D01*
X45176D01*
X45140Y33038D01*
Y33157D01*
X45183D01*
Y33157D01*
X45390D01*
Y33375D01*
Y33593D01*
X45183D01*
Y33593D01*
X45176D01*
X45140Y33628D01*
Y33653D01*
X44362D01*
Y33355D01*
X44236D01*
X44235Y33355D01*
X44166Y33408D01*
X44086Y33442D01*
X44000Y33453D01*
X43914Y33442D01*
X43834Y33408D01*
X43765Y33355D01*
X43712Y33286D01*
X43678Y33206D01*
X43667Y33120D01*
X43678Y33034D01*
X43712Y32954D01*
X43765Y32885D01*
X43834Y32832D01*
X43914Y32798D01*
X44000Y32787D01*
X44086Y32798D01*
X44166Y32832D01*
X44235Y32885D01*
X44236Y32885D01*
X44362D01*
Y32587D01*
Y31627D01*
X45140D01*
Y31925D01*
X45613D01*
X45645Y31885D01*
X45714Y31832D01*
X45794Y31798D01*
X45880Y31787D01*
X45966Y31798D01*
X46046Y31832D01*
X46115Y31885D01*
X46116Y31885D01*
X46731D01*
Y31754D01*
X47128D01*
Y32018D01*
X47136Y32030D01*
X47154Y32120D01*
X47136Y32207D01*
X47180Y32231D01*
X47303Y32109D01*
X47322D01*
Y32061D01*
X47718D01*
Y32109D01*
X47737D01*
X47866Y32238D01*
X47912Y32218D01*
Y31754D01*
X48309D01*
Y32084D01*
X48432Y32207D01*
X48466Y32259D01*
X48478Y32319D01*
Y32508D01*
X48486Y32512D01*
X48555Y32565D01*
X48608Y32634D01*
X48613Y32645D01*
X48662Y32635D01*
Y31481D01*
X48631Y31468D01*
X48552Y31408D01*
X48492Y31329D01*
X48454Y31238D01*
X48441Y31140D01*
X48454Y31042D01*
X48492Y30951D01*
X48552Y30872D01*
X48631Y30812D01*
X48722Y30774D01*
X48820Y30761D01*
X48918Y30774D01*
X49009Y30812D01*
X49088Y30872D01*
X49148Y30951D01*
X49186Y31042D01*
X49199Y31140D01*
X49186Y31238D01*
X49148Y31329D01*
X49088Y31408D01*
X49009Y31468D01*
X48978Y31481D01*
Y33239D01*
X48966Y33300D01*
X48932Y33351D01*
X48528Y33755D01*
Y33835D01*
X48573Y33857D01*
X48631Y33812D01*
X48722Y33774D01*
X48820Y33761D01*
X48918Y33774D01*
X49009Y33812D01*
X49088Y33872D01*
X49148Y33951D01*
X49186Y34042D01*
X49199Y34140D01*
X49186Y34238D01*
X49148Y34329D01*
X49088Y34408D01*
X49009Y34468D01*
X48918Y34506D01*
X48820Y34519D01*
X48722Y34506D01*
X48631Y34468D01*
X48573Y34423D01*
X48528Y34445D01*
Y34510D01*
X48516Y34571D01*
X48481Y34622D01*
X48392Y34712D01*
X48340Y34746D01*
X48280Y34758D01*
X44585D01*
X44472Y34871D01*
X44488Y34919D01*
X44532Y34925D01*
X44613Y34958D01*
X44682Y35011D01*
X44734Y35080D01*
X44768Y35160D01*
X44779Y35246D01*
X44768Y35332D01*
X44734Y35413D01*
X44682Y35482D01*
X44613Y35534D01*
X44604Y35538D01*
Y36186D01*
X44677Y36200D01*
X44739Y36242D01*
X44781Y36304D01*
X44796Y36378D01*
X44781Y36451D01*
X44739Y36513D01*
Y36557D01*
X44781Y36619D01*
X44796Y36693D01*
X44781Y36766D01*
X44739Y36828D01*
Y36872D01*
X44781Y36934D01*
X44796Y37008D01*
X44781Y37081D01*
X44739Y37143D01*
Y37187D01*
X44781Y37249D01*
X44796Y37323D01*
X44781Y37396D01*
X44755Y37435D01*
X44778Y37479D01*
X44841D01*
X44873Y37438D01*
X44931Y37393D01*
X44999Y37365D01*
X45073Y37355D01*
X45146Y37365D01*
X45214Y37393D01*
X45272Y37438D01*
X45317Y37496D01*
X45345Y37564D01*
X45355Y37637D01*
X45345Y37711D01*
X45343Y37715D01*
X45368Y37759D01*
X45433Y37767D01*
X45501Y37795D01*
X45512Y37804D01*
X45557Y37782D01*
Y37421D01*
X45496Y37360D01*
X45462Y37309D01*
X45450Y37248D01*
Y36178D01*
X45405Y36155D01*
X45366Y36181D01*
X45293Y36196D01*
X45219Y36181D01*
X45157Y36139D01*
X45113D01*
X45051Y36181D01*
X44978Y36196D01*
X44904Y36181D01*
X44842Y36139D01*
X44800Y36077D01*
X44786Y36004D01*
Y35689D01*
X44800Y35615D01*
X44842Y35553D01*
X44904Y35511D01*
X44978Y35497D01*
X45051Y35511D01*
X45113Y35553D01*
X45157D01*
X45217Y35513D01*
X45223Y35484D01*
X45225Y35461D01*
X45194Y35448D01*
X45125Y35395D01*
X45072Y35326D01*
X45038Y35246D01*
X45027Y35160D01*
X45038Y35074D01*
X45072Y34994D01*
X45125Y34925D01*
X45194Y34872D01*
X45274Y34838D01*
X45360Y34827D01*
X45446Y34838D01*
X45526Y34872D01*
X45595Y34925D01*
X45648Y34994D01*
X45682Y35074D01*
X45693Y35160D01*
X45682Y35246D01*
X45648Y35326D01*
X45595Y35395D01*
X45595Y35396D01*
X45668Y35468D01*
X45702Y35519D01*
X45703Y35526D01*
X45743Y35553D01*
X45787D01*
X45849Y35511D01*
X45873Y35507D01*
Y35846D01*
X45973D01*
Y35507D01*
X45996Y35511D01*
X46058Y35553D01*
X46102D01*
X46164Y35511D01*
X46237Y35497D01*
X46311Y35511D01*
X46373Y35553D01*
X46417D01*
X46479Y35511D01*
X46502Y35507D01*
Y35846D01*
Y36186D01*
X46479Y36181D01*
X46417Y36139D01*
X46373D01*
X46333Y36166D01*
X46332Y36173D01*
X46298Y36224D01*
X46143Y36379D01*
X46092Y36413D01*
X46032Y36425D01*
X45813D01*
X45804Y36423D01*
X45766Y36455D01*
Y37183D01*
X45827Y37244D01*
X45861Y37295D01*
X45873Y37356D01*
X45873Y37356D01*
X45873Y37356D01*
Y37356D01*
Y38187D01*
X45861Y38248D01*
X45827Y38299D01*
X45451Y38675D01*
Y38782D01*
X45495Y38805D01*
X45534Y38779D01*
X45558Y38774D01*
Y39114D01*
X45658D01*
Y38774D01*
X45681Y38779D01*
X45743Y38821D01*
X45787D01*
X45849Y38779D01*
X45923Y38764D01*
X45996Y38779D01*
X46058Y38821D01*
X46102D01*
X46164Y38779D01*
X46187Y38774D01*
Y39114D01*
X46287D01*
Y38774D01*
X46311Y38779D01*
X46373Y38821D01*
X46417D01*
X46479Y38779D01*
X46502Y38774D01*
Y39114D01*
X46602D01*
Y38774D01*
X46626Y38779D01*
X46688Y38821D01*
X46732D01*
X46794Y38779D01*
X46867Y38764D01*
X46941Y38779D01*
X47003Y38821D01*
X47047D01*
X47109Y38779D01*
X47182Y38764D01*
X47256Y38779D01*
X47318Y38821D01*
X47360Y38883D01*
X47374Y38956D01*
Y39271D01*
X47360Y39345D01*
X47318Y39407D01*
X47348Y39452D01*
X48245D01*
X48407Y39289D01*
X48394Y39258D01*
X48381Y39160D01*
X48394Y39062D01*
X48432Y38971D01*
X48492Y38892D01*
X48571Y38832D01*
X48662Y38794D01*
X48760Y38781D01*
X48858Y38794D01*
X48949Y38832D01*
X49028Y38892D01*
X49088Y38971D01*
X49126Y39062D01*
X49139Y39160D01*
X49126Y39258D01*
X49088Y39349D01*
X49028Y39428D01*
X48949Y39488D01*
X48858Y39526D01*
X48760Y39539D01*
X48662Y39526D01*
X48631Y39513D01*
X48422Y39722D01*
X48370Y39756D01*
X48310Y39768D01*
X45188D01*
X45127Y39756D01*
X45076Y39722D01*
X44866Y39512D01*
X44832Y39460D01*
X44820Y39400D01*
Y39374D01*
X44800Y39345D01*
X44786Y39271D01*
Y38956D01*
X44800Y38883D01*
X44842Y38821D01*
X44904Y38779D01*
X44978Y38764D01*
X45051Y38779D01*
X45090Y38805D01*
X45135Y38782D01*
Y38609D01*
X45147Y38549D01*
X45181Y38498D01*
X45317Y38362D01*
X45301Y38315D01*
X45287Y38313D01*
X45219Y38285D01*
X45196Y38267D01*
X45084Y38379D01*
X45033Y38413D01*
X44973Y38425D01*
X44778D01*
X44755Y38470D01*
X44781Y38509D01*
X44796Y38582D01*
X44781Y38656D01*
X44739Y38718D01*
X44677Y38760D01*
X44604Y38774D01*
X44598D01*
Y39535D01*
X45065Y40002D01*
X48419D01*
X48432Y39971D01*
X48492Y39892D01*
X48571Y39832D01*
X48662Y39794D01*
X48760Y39781D01*
X48858Y39794D01*
X48949Y39832D01*
X49028Y39892D01*
X49088Y39971D01*
X49126Y40062D01*
X49139Y40160D01*
X49126Y40258D01*
X49088Y40349D01*
X49028Y40428D01*
X48949Y40488D01*
X48858Y40526D01*
X48760Y40539D01*
D02*
G37*
G36*
X49710Y38532D02*
X49662Y38526D01*
X49571Y38488D01*
X49492Y38428D01*
X49432Y38349D01*
X49394Y38258D01*
X49388Y38210D01*
X49710D01*
Y38532D01*
D02*
G37*
G36*
X49810D02*
Y38210D01*
X50132D01*
X50126Y38258D01*
X50088Y38349D01*
X50028Y38428D01*
X49949Y38488D01*
X49858Y38526D01*
X49810Y38532D01*
D02*
G37*
G36*
X43632Y40476D02*
X43385D01*
Y40170D01*
X43632D01*
Y40476D01*
D02*
G37*
G36*
X49710Y40532D02*
X49662Y40526D01*
X49571Y40488D01*
X49492Y40428D01*
X49432Y40349D01*
X49394Y40258D01*
X49388Y40210D01*
X49710D01*
Y40532D01*
D02*
G37*
G36*
X49810D02*
Y40210D01*
X50132D01*
X50126Y40258D01*
X50088Y40349D01*
X50028Y40428D01*
X49949Y40488D01*
X49858Y40526D01*
X49810Y40532D01*
D02*
G37*
G36*
Y39532D02*
Y39210D01*
X50132D01*
X50126Y39258D01*
X50088Y39349D01*
X50028Y39428D01*
X49949Y39488D01*
X49858Y39526D01*
X49810Y39532D01*
D02*
G37*
G36*
X49710Y40110D02*
X49388D01*
X49394Y40062D01*
X49432Y39971D01*
X49492Y39892D01*
X49571Y39832D01*
X49662Y39794D01*
X49710Y39788D01*
Y40110D01*
D02*
G37*
G36*
X50132D02*
X49810D01*
Y39788D01*
X49858Y39794D01*
X49949Y39832D01*
X50028Y39892D01*
X50088Y39971D01*
X50126Y40062D01*
X50132Y40110D01*
D02*
G37*
G36*
Y38110D02*
X49810D01*
Y37788D01*
X49858Y37794D01*
X49949Y37832D01*
X50028Y37892D01*
X50088Y37971D01*
X50126Y38062D01*
X50132Y38110D01*
D02*
G37*
G36*
X49760Y36539D02*
X49662Y36526D01*
X49571Y36488D01*
X49492Y36428D01*
X49432Y36349D01*
X49394Y36258D01*
X49381Y36160D01*
X49394Y36062D01*
X49432Y35971D01*
X49492Y35892D01*
X49571Y35832D01*
X49662Y35794D01*
X49760Y35781D01*
X49858Y35794D01*
X49949Y35832D01*
X50028Y35892D01*
X50088Y35971D01*
X50126Y36062D01*
X50139Y36160D01*
X50126Y36258D01*
X50088Y36349D01*
X50028Y36428D01*
X49949Y36488D01*
X49858Y36526D01*
X49760Y36539D01*
D02*
G37*
G36*
X47182Y36196D02*
X47109Y36181D01*
X47047Y36139D01*
X47003D01*
X46941Y36181D01*
X46867Y36196D01*
X46794Y36181D01*
X46732Y36139D01*
X46688D01*
X46626Y36181D01*
X46602Y36186D01*
Y35846D01*
Y35507D01*
X46626Y35511D01*
X46688Y35553D01*
X46732D01*
X46794Y35511D01*
X46867Y35497D01*
X46941Y35511D01*
X46987Y35542D01*
X47033Y35523D01*
X47036Y35507D01*
X47071Y35456D01*
X47398Y35128D01*
X47398Y35128D01*
X47398D01*
X47398Y35128D01*
X47398D01*
X47398Y35128D01*
Y35128D01*
Y35128D01*
D01*
D01*
X47398D01*
Y35128D01*
X47450Y35094D01*
X47510Y35082D01*
X48349D01*
X48382Y35044D01*
X48381Y35040D01*
X48394Y34942D01*
X48432Y34851D01*
X48492Y34772D01*
X48571Y34712D01*
X48662Y34674D01*
X48760Y34661D01*
X48858Y34674D01*
X48949Y34712D01*
X49028Y34772D01*
X49088Y34851D01*
X49126Y34942D01*
X49139Y35040D01*
X49126Y35138D01*
X49088Y35229D01*
X49028Y35308D01*
X48949Y35368D01*
X48858Y35406D01*
X48760Y35419D01*
X48662Y35406D01*
X48644Y35398D01*
X47575D01*
X47359Y35614D01*
X47360Y35615D01*
X47374Y35689D01*
Y36004D01*
X47360Y36077D01*
X47318Y36139D01*
X47256Y36181D01*
X47182Y36196D01*
D02*
G37*
G36*
X48760Y37539D02*
X48662Y37526D01*
X48571Y37488D01*
X48492Y37428D01*
X48432Y37349D01*
X48394Y37258D01*
X48381Y37160D01*
X48394Y37062D01*
X48432Y36971D01*
X48492Y36892D01*
X48571Y36832D01*
X48662Y36794D01*
X48760Y36781D01*
X48858Y36794D01*
X48949Y36832D01*
X49028Y36892D01*
X49088Y36971D01*
X49126Y37062D01*
X49139Y37160D01*
X49126Y37258D01*
X49088Y37349D01*
X49028Y37428D01*
X48949Y37488D01*
X48858Y37526D01*
X48760Y37539D01*
D02*
G37*
G36*
X46192Y34090D02*
X45870D01*
Y33768D01*
X45918Y33774D01*
X46009Y33812D01*
X46088Y33872D01*
X46148Y33951D01*
X46186Y34042D01*
X46192Y34090D01*
D02*
G37*
G36*
X46770D02*
X46448D01*
X46454Y34042D01*
X46492Y33951D01*
X46552Y33872D01*
X46631Y33812D01*
X46722Y33774D01*
X46770Y33768D01*
Y34090D01*
D02*
G37*
G36*
X47192D02*
X46870D01*
Y33768D01*
X46918Y33774D01*
X47009Y33812D01*
X47088Y33872D01*
X47148Y33951D01*
X47186Y34042D01*
X47192Y34090D01*
D02*
G37*
G36*
X49710Y37532D02*
X49662Y37526D01*
X49571Y37488D01*
X49492Y37428D01*
X49432Y37349D01*
X49394Y37258D01*
X49388Y37210D01*
X49710D01*
Y37532D01*
D02*
G37*
G36*
X49810D02*
Y37210D01*
X50132D01*
X50126Y37258D01*
X50088Y37349D01*
X50028Y37428D01*
X49949Y37488D01*
X49858Y37526D01*
X49810Y37532D01*
D02*
G37*
G36*
X49710Y38110D02*
X49388D01*
X49394Y38062D01*
X49432Y37971D01*
X49492Y37892D01*
X49571Y37832D01*
X49662Y37794D01*
X49710Y37788D01*
Y38110D01*
D02*
G37*
G36*
Y37110D02*
X49388D01*
X49394Y37062D01*
X49432Y36971D01*
X49492Y36892D01*
X49571Y36832D01*
X49662Y36794D01*
X49710Y36788D01*
Y37110D01*
D02*
G37*
G36*
X50132D02*
X49810D01*
Y36788D01*
X49858Y36794D01*
X49949Y36832D01*
X50028Y36892D01*
X50088Y36971D01*
X50126Y37062D01*
X50132Y37110D01*
D02*
G37*
G36*
X47871Y38774D02*
X47556D01*
X47483Y38760D01*
X47421Y38718D01*
X47379Y38656D01*
X47364Y38582D01*
X47379Y38509D01*
X47421Y38447D01*
Y38403D01*
X47379Y38341D01*
X47364Y38267D01*
X47379Y38194D01*
X47421Y38132D01*
Y38088D01*
X47379Y38026D01*
X47364Y37952D01*
X47379Y37879D01*
X47421Y37817D01*
Y37773D01*
X47379Y37711D01*
X47364Y37637D01*
X47379Y37564D01*
X47421Y37502D01*
Y37458D01*
X47379Y37396D01*
X47364Y37323D01*
X47379Y37249D01*
X47405Y37210D01*
X47382Y37166D01*
X47138D01*
X47038Y37265D01*
Y38168D01*
X47080Y38200D01*
X47125Y38259D01*
X47153Y38327D01*
X47162Y38400D01*
X47153Y38473D01*
X47125Y38541D01*
X47080Y38600D01*
X47021Y38645D01*
X46953Y38673D01*
X46880Y38682D01*
X46807Y38673D01*
X46739Y38645D01*
X46680Y38600D01*
X46635Y38541D01*
X46607Y38473D01*
X46605Y38456D01*
X46555D01*
X46553Y38473D01*
X46525Y38541D01*
X46480Y38600D01*
X46421Y38645D01*
X46353Y38673D01*
X46280Y38682D01*
X46207Y38673D01*
X46139Y38645D01*
X46080Y38600D01*
X46035Y38541D01*
X46007Y38473D01*
X45998Y38400D01*
X46007Y38327D01*
X46035Y38259D01*
X46080Y38200D01*
X46122Y38168D01*
Y37200D01*
X46122Y37200D01*
X46122D01*
X46134Y37140D01*
X46168Y37088D01*
X46676Y36581D01*
X46727Y36547D01*
X46787Y36535D01*
X47382D01*
X47405Y36490D01*
X47379Y36451D01*
X47364Y36378D01*
X47379Y36304D01*
X47421Y36242D01*
X47483Y36200D01*
X47556Y36186D01*
X47712D01*
Y36110D01*
X47712Y36110D01*
X47712D01*
X47724Y36050D01*
X47758Y35998D01*
X48228Y35528D01*
X48280Y35494D01*
X48340Y35482D01*
X49175D01*
X49385Y35272D01*
Y34665D01*
X50135D01*
Y35415D01*
X49688D01*
X49352Y35752D01*
X49300Y35786D01*
X49240Y35798D01*
X49135D01*
Y36535D01*
X48385D01*
Y35884D01*
X48339Y35865D01*
X48028Y36175D01*
Y36230D01*
X48021Y36263D01*
X48049Y36304D01*
X48063Y36378D01*
X48049Y36451D01*
X48007Y36513D01*
Y36557D01*
X48049Y36619D01*
X48063Y36693D01*
X48049Y36766D01*
X48007Y36828D01*
Y36872D01*
X48049Y36934D01*
X48063Y37008D01*
X48049Y37081D01*
X48007Y37143D01*
Y37187D01*
X48034Y37227D01*
X48041Y37228D01*
X48092Y37262D01*
X48635Y37806D01*
X48662Y37794D01*
X48760Y37781D01*
X48858Y37794D01*
X48949Y37832D01*
X49028Y37892D01*
X49088Y37971D01*
X49126Y38062D01*
X49139Y38160D01*
X49126Y38258D01*
X49088Y38349D01*
X49028Y38428D01*
X48949Y38488D01*
X48858Y38526D01*
X48760Y38539D01*
X48662Y38526D01*
X48571Y38488D01*
X48492Y38428D01*
X48432Y38349D01*
X48394Y38258D01*
X48381Y38160D01*
X48394Y38062D01*
X48409Y38026D01*
X48095Y37712D01*
X48045Y37717D01*
X48007Y37773D01*
Y37817D01*
X48049Y37879D01*
X48063Y37952D01*
X48049Y38026D01*
X48007Y38088D01*
Y38132D01*
X48049Y38194D01*
X48063Y38267D01*
X48049Y38341D01*
X48007Y38403D01*
Y38447D01*
X48049Y38509D01*
X48063Y38582D01*
X48049Y38656D01*
X48007Y38718D01*
X47945Y38760D01*
X47871Y38774D01*
D02*
G37*
%LPD*%
D10*
X42745Y40120D02*
D03*
X43335D02*
D03*
D11*
X43080Y38920D02*
X43680Y38320D01*
X43075Y38920D02*
X43080D01*
X42120Y40120D02*
X42745D01*
Y39250D02*
Y40120D01*
Y39250D02*
X43075Y38920D01*
X43725D02*
Y39470D01*
D12*
X45556Y35580D02*
Y35794D01*
X45360Y35384D02*
X45556Y35580D01*
X45360Y35160D02*
Y35384D01*
X43145Y39480D02*
X43335Y39671D01*
Y40120D01*
X48820Y31140D02*
Y33239D01*
X48370Y33690D02*
X48820Y33239D01*
X48370Y33690D02*
Y34510D01*
X48280Y34600D02*
X48370Y34510D01*
X44520Y34600D02*
X48280D01*
X44041Y35078D02*
X44520Y34600D01*
X44041Y35078D02*
Y35219D01*
X44020Y35240D02*
X44041Y35219D01*
X44446Y35246D02*
Y36378D01*
X43790Y34190D02*
Y35240D01*
Y37742D01*
X49760Y35040D02*
Y35120D01*
X49240Y35640D02*
X49760Y35120D01*
X47870Y36110D02*
X48340Y35640D01*
X47870Y36110D02*
Y36230D01*
X46186Y35898D02*
Y36113D01*
X46032Y36267D02*
X46186Y36113D01*
X45813Y36267D02*
X46032D01*
X45659Y36113D02*
X45813Y36267D01*
X45659Y35898D02*
Y36113D01*
X45608Y35846D02*
X45659Y35898D01*
X45608Y35846D02*
Y37248D01*
X45715Y37356D01*
Y38187D01*
X45293Y38609D02*
X45715Y38187D01*
X45293Y38609D02*
Y39114D01*
X46280Y37200D02*
X46787Y36693D01*
X46280Y37200D02*
Y38400D01*
X46880Y37200D02*
X47072Y37008D01*
X46880Y37200D02*
Y38400D01*
X47714Y37323D02*
X47766Y37374D01*
X47980D01*
X48760Y38154D01*
Y38160D01*
X45200Y38040D02*
X45240D01*
X44973Y38267D02*
X45200Y38040D01*
X44446Y38267D02*
X44973D01*
X44440Y38582D02*
Y39600D01*
X44020Y35240D02*
Y36693D01*
X47072Y37008D02*
X47714D01*
X47182Y35568D02*
Y35846D01*
Y35568D02*
X47510Y35240D01*
X48760D01*
X44978Y39114D02*
Y39400D01*
X45188Y39610D01*
X48310D01*
X48760Y39160D01*
X46787Y36693D02*
X47714D01*
X44020D02*
X44446D01*
Y37637D02*
X45073D01*
X43790Y37742D02*
X44000Y37952D01*
X44446D01*
X44440Y38582D02*
X44446D01*
X44440Y39600D02*
X45000Y40160D01*
X48760D01*
X48340Y35640D02*
X49240D01*
X49820Y33740D02*
Y34140D01*
X49280Y33200D02*
X49820Y33740D01*
X49280Y31680D02*
Y33200D01*
Y31680D02*
X49820Y31140D01*
X48320Y32319D02*
Y32800D01*
X48111Y32110D02*
X48320Y32319D01*
X46160Y33405D02*
X46715D01*
X45480Y32825D02*
X46370D01*
D13*
X49840Y30280D02*
X50320D01*
X50640Y30600D01*
Y31960D01*
X49760Y32840D02*
X50640Y31960D01*
X44751Y32160D02*
Y33120D01*
X43169Y32160D02*
Y33120D01*
X42160Y30320D02*
X42840D01*
X41880Y30600D02*
X42160Y30320D01*
X41880Y30600D02*
Y31760D01*
X42040Y31920D01*
X42929D01*
X43169Y32160D01*
X44751D02*
X45840D01*
X45880Y32120D02*
X46919D01*
X44000Y33120D02*
X44751D01*
X44820Y30260D02*
Y31140D01*
X47820Y30260D02*
Y31140D01*
D16*
X50741Y40160D02*
D03*
Y39373D02*
D03*
Y38585D02*
D03*
Y37798D02*
D03*
Y37011D02*
D03*
Y36223D02*
D03*
Y35436D02*
D03*
Y34649D02*
D03*
Y33861D02*
D03*
Y33074D02*
D03*
X42080D02*
D03*
Y33861D02*
D03*
Y34649D02*
D03*
Y35436D02*
D03*
Y36223D02*
D03*
Y37011D02*
D03*
Y37798D02*
D03*
Y38585D02*
D03*
Y39373D02*
D03*
D17*
Y40160D02*
D03*
D18*
X44800Y30240D02*
D03*
X42800D02*
D03*
X47800D02*
D03*
X49760D02*
D03*
Y35040D02*
D03*
D19*
X45800Y30240D02*
D03*
X43800D02*
D03*
X46800D02*
D03*
X48760D02*
D03*
X42820Y34140D02*
D03*
X43820D02*
D03*
X44820D02*
D03*
X45820D02*
D03*
X46820D02*
D03*
X47820D02*
D03*
X48820D02*
D03*
X49820D02*
D03*
X42820Y31140D02*
D03*
X43820D02*
D03*
X44820D02*
D03*
X45820D02*
D03*
X46820D02*
D03*
X47820D02*
D03*
X48820D02*
D03*
X49760Y40160D02*
D03*
X48760D02*
D03*
X49760Y39160D02*
D03*
X48760D02*
D03*
X49760Y38160D02*
D03*
X48760D02*
D03*
X49760Y37160D02*
D03*
X48760D02*
D03*
X49760Y36160D02*
D03*
X48760Y35040D02*
D03*
D20*
X49820Y31140D02*
D03*
X48760Y36160D02*
D03*
D21*
X45360Y35160D02*
D03*
X49760Y32840D02*
D03*
X44446Y35246D02*
D03*
X43680Y38320D02*
D03*
X45880Y32120D02*
D03*
X48320Y32800D02*
D03*
X44000Y33120D02*
D03*
X46760Y33360D02*
D03*
D22*
X45360Y38040D02*
D03*
X45073Y37637D02*
D03*
X46880Y38400D02*
D03*
X46280D02*
D03*
D23*
X44751Y32160D02*
D03*
X43169D02*
D03*
X44751Y33120D02*
D03*
X43169D02*
D03*
D24*
X43735Y39480D02*
D03*
X43145D02*
D03*
D25*
X45440Y32785D02*
D03*
Y33375D02*
D03*
D26*
X46160Y32755D02*
D03*
Y33405D02*
D03*
D27*
X47714Y36378D02*
D03*
Y36693D02*
D03*
Y37008D02*
D03*
Y37323D02*
D03*
Y37637D02*
D03*
Y37952D02*
D03*
Y38267D02*
D03*
Y38582D02*
D03*
X44446D02*
D03*
Y38267D02*
D03*
Y37952D02*
D03*
Y37637D02*
D03*
Y37323D02*
D03*
Y37008D02*
D03*
Y36693D02*
D03*
Y36378D02*
D03*
D28*
X47182Y39114D02*
D03*
X46867D02*
D03*
X46552D02*
D03*
X46237D02*
D03*
X45923D02*
D03*
X45608D02*
D03*
X45293D02*
D03*
X44978D02*
D03*
Y35846D02*
D03*
X45293D02*
D03*
X45608D02*
D03*
X45923D02*
D03*
X46237D02*
D03*
X46552D02*
D03*
X46867D02*
D03*
X47182D02*
D03*
D29*
X48111Y32110D02*
D03*
X46929D02*
D03*
D30*
X47520Y32011D02*
D03*
D31*
Y32897D02*
D03*
D32*
X43725Y38920D02*
D03*
X43075D02*
D03*
M02*
