%FSLAX24Y24*%
%MOIN*%
G70*
G01*
G75*
G04 Layer_Color=32896*
%ADD10R,0.0433X0.0551*%
%ADD11C,0.0100*%
%ADD12C,0.0150*%
%ADD13C,0.0300*%
%ADD14C,0.0250*%
%ADD15C,0.0200*%
%ADD16C,0.0580*%
%ADD17R,0.0580X0.0580*%
%ADD18R,0.0591X0.0591*%
%ADD19C,0.0591*%
%ADD20R,0.0591X0.0591*%
%ADD21C,0.0500*%
%ADD22C,0.0400*%
%ADD23R,0.0618X0.0906*%
%ADD24R,0.0276X0.0354*%
%ADD25R,0.0354X0.0276*%
%ADD26R,0.0315X0.0315*%
%ADD27O,0.0532X0.0217*%
%ADD28O,0.0217X0.0532*%
%ADD29R,0.0236X0.0551*%
%ADD30R,0.0236X0.0354*%
G04:AMPARAMS|DCode=31|XSize=70.9mil|YSize=141.7mil|CornerRadius=0mil|HoleSize=0mil|Usage=FLASHONLY|Rotation=0.000|XOffset=0mil|YOffset=0mil|HoleType=Round|Shape=Octagon|*
%AMOCTAGOND31*
4,1,8,-0.0177,0.0709,0.0177,0.0709,0.0354,0.0532,0.0354,-0.0532,0.0177,-0.0709,-0.0177,-0.0709,-0.0354,-0.0532,-0.0354,0.0532,-0.0177,0.0709,0.0*
%
%ADD31OCTAGOND31*%

%ADD32R,0.0315X0.0315*%
%ADD33R,0.0513X0.0631*%
%ADD34C,0.0660*%
%ADD35R,0.0660X0.0660*%
%ADD36R,0.0671X0.0671*%
%ADD37C,0.0671*%
%ADD38R,0.0671X0.0671*%
%ADD39C,0.0480*%
%ADD40R,0.0698X0.0986*%
%ADD41R,0.0356X0.0434*%
%ADD42R,0.0434X0.0356*%
%ADD43R,0.0395X0.0395*%
%ADD44O,0.0612X0.0297*%
%ADD45O,0.0297X0.0612*%
%ADD46R,0.0316X0.0631*%
%ADD47R,0.0316X0.0434*%
G04:AMPARAMS|DCode=48|XSize=78.9mil|YSize=149.7mil|CornerRadius=0mil|HoleSize=0mil|Usage=FLASHONLY|Rotation=0.000|XOffset=0mil|YOffset=0mil|HoleType=Round|Shape=Octagon|*
%AMOCTAGOND48*
4,1,8,-0.0197,0.0749,0.0197,0.0749,0.0394,0.0552,0.0394,-0.0552,0.0197,-0.0749,-0.0197,-0.0749,-0.0394,-0.0552,-0.0394,0.0552,-0.0197,0.0749,0.0*
%
%ADD48OCTAGOND48*%

%ADD49R,0.0395X0.0395*%
%ADD50C,0.0236*%
%ADD51C,0.0098*%
%ADD52C,0.0079*%
%ADD53C,0.0050*%
%ADD54C,0.0060*%
%ADD55C,0.0080*%
D50*
X47005Y36673D02*
G03*
X47005Y36673I-118J0D01*
G01*
X50100Y31990D02*
G03*
X50100Y31990I-118J0D01*
G01*
D51*
X47556Y35846D02*
G03*
X47556Y35846I-49J0D01*
G01*
X50381Y31140D02*
G03*
X50381Y31140I-49J0D01*
G01*
X48494Y31933D02*
G03*
X48494Y31933I-49J0D01*
G01*
D52*
X50375Y32890D02*
G03*
X50375Y32390I0J-250D01*
G01*
X42660Y31560D02*
Y32492D01*
Y31560D02*
X45310D01*
Y31578D02*
Y32178D01*
X42660Y32760D02*
X45310D01*
X42660Y32492D02*
Y32760D01*
X45310Y32178D02*
Y32760D01*
Y31560D02*
Y31578D01*
X42660Y32520D02*
Y33452D01*
Y32520D02*
X45310D01*
Y32538D02*
Y33138D01*
X42660Y33720D02*
X45310D01*
X42660Y33452D02*
Y33720D01*
X45310Y33138D02*
Y33720D01*
Y32520D02*
Y32538D01*
X46300Y29740D02*
Y30740D01*
X44300D02*
X46300D01*
X44300Y29740D02*
Y30740D01*
Y29740D02*
X46300D01*
X44300D02*
Y30740D01*
X42300D02*
X44300D01*
X42300Y29740D02*
Y30740D01*
Y29740D02*
X44300D01*
X46300D02*
Y30740D01*
Y29740D02*
X48300D01*
Y30740D01*
X46300D02*
X48300D01*
X48260Y29740D02*
Y30740D01*
Y29740D02*
X50260D01*
Y30740D01*
X48260D02*
X50260D01*
X43361Y39618D02*
X43519D01*
X43361Y39342D02*
X43519D01*
X45578Y33001D02*
Y33159D01*
X45302Y33001D02*
Y33159D01*
X45860Y32430D02*
Y33730D01*
Y32430D02*
X46460D01*
Y33730D01*
X45860D02*
X46460D01*
X44879Y36279D02*
Y38681D01*
X47281Y36279D02*
Y38681D01*
X44879D02*
X47281D01*
X44879Y36279D02*
X47281D01*
X42265Y31597D02*
Y33683D01*
X50375Y32890D02*
Y33683D01*
Y31597D02*
Y32390D01*
X42265Y33683D02*
X50375D01*
X42265Y31597D02*
X50375D01*
X48260Y35660D02*
Y40660D01*
X50260Y35660D02*
Y40660D01*
X48260Y35660D02*
X50260D01*
X48260Y40660D02*
X50260D01*
X48445Y32188D02*
Y33252D01*
X48032D02*
X48445D01*
X46595Y32188D02*
Y33252D01*
X47008D01*
X48260Y34540D02*
Y35540D01*
Y34540D02*
X50260D01*
Y35540D01*
X48260D02*
X50260D01*
X42750Y38620D02*
X44050D01*
Y39220D01*
X42750D02*
X44050D01*
X42750Y38620D02*
Y39220D01*
D53*
X49440Y29630D02*
X49540D01*
X49490D01*
Y29480D01*
X49590D02*
Y29580D01*
X49640Y29630D01*
X49690Y29580D01*
Y29480D01*
Y29555D01*
X49590D01*
X49740Y29630D02*
X49790D01*
X49765D01*
Y29480D01*
X49740D01*
X49790D01*
X49865Y29630D02*
Y29480D01*
X49965D01*
X50015Y29555D02*
X50115D01*
X50165Y29480D02*
X50215D01*
X50190D01*
Y29630D01*
X50165Y29605D01*
X48440Y29630D02*
X48540D01*
X48490D01*
Y29480D01*
X48590D02*
Y29580D01*
X48640Y29630D01*
X48690Y29580D01*
Y29480D01*
Y29555D01*
X48590D01*
X48740Y29630D02*
X48790D01*
X48765D01*
Y29480D01*
X48740D01*
X48790D01*
X48865Y29630D02*
Y29480D01*
X48965D01*
X49015Y29555D02*
X49115D01*
X49265Y29480D02*
X49165D01*
X49265Y29580D01*
Y29605D01*
X49240Y29630D01*
X49190D01*
X49165Y29605D01*
X47600Y29630D02*
X47700D01*
X47650D01*
Y29480D01*
X47825Y29630D02*
X47775D01*
X47750Y29605D01*
Y29505D01*
X47775Y29480D01*
X47825D01*
X47850Y29505D01*
Y29605D01*
X47825Y29630D01*
X47900Y29480D02*
Y29630D01*
X47975D01*
X48000Y29605D01*
Y29555D01*
X47975Y29530D01*
X47900D01*
X46700Y29605D02*
X46675Y29630D01*
X46625D01*
X46600Y29605D01*
Y29505D01*
X46625Y29480D01*
X46675D01*
X46700Y29505D01*
Y29555D01*
X46650D01*
X46750Y29480D02*
Y29630D01*
X46850Y29480D01*
Y29630D01*
X46900D02*
Y29480D01*
X46975D01*
X47000Y29505D01*
Y29605D01*
X46975Y29630D01*
X46900D01*
X45700Y29605D02*
X45675Y29630D01*
X45625D01*
X45600Y29605D01*
Y29505D01*
X45625Y29480D01*
X45675D01*
X45700Y29505D01*
Y29555D01*
X45650D01*
X45750Y29480D02*
Y29630D01*
X45850Y29480D01*
Y29630D01*
X45900D02*
Y29480D01*
X45975D01*
X46000Y29505D01*
Y29605D01*
X45975Y29630D01*
X45900D01*
X44440D02*
Y29480D01*
X44515D01*
X44540Y29505D01*
Y29530D01*
X44515Y29555D01*
X44440D01*
X44515D01*
X44540Y29580D01*
Y29605D01*
X44515Y29630D01*
X44440D01*
X44665D02*
X44615D01*
X44590Y29605D01*
Y29505D01*
X44615Y29480D01*
X44665D01*
X44690Y29505D01*
Y29605D01*
X44665Y29630D01*
X44740D02*
X44840D01*
X44790D01*
Y29480D01*
X44890Y29630D02*
X44990D01*
X44940D01*
Y29480D01*
X45115Y29630D02*
X45065D01*
X45040Y29605D01*
Y29505D01*
X45065Y29480D01*
X45115D01*
X45140Y29505D01*
Y29605D01*
X45115Y29630D01*
X45190Y29480D02*
Y29630D01*
X45240Y29580D01*
X45290Y29630D01*
Y29480D01*
X43700Y29605D02*
X43675Y29630D01*
X43625D01*
X43600Y29605D01*
Y29505D01*
X43625Y29480D01*
X43675D01*
X43700Y29505D01*
Y29555D01*
X43650D01*
X43750Y29480D02*
Y29630D01*
X43850Y29480D01*
Y29630D01*
X43900D02*
Y29480D01*
X43975D01*
X44000Y29505D01*
Y29605D01*
X43975Y29630D01*
X43900D01*
X42640D02*
Y29530D01*
X42690Y29480D01*
X42740Y29530D01*
Y29630D01*
X42790D02*
X42840D01*
X42815D01*
Y29480D01*
X42790D01*
X42840D01*
X42915D02*
Y29630D01*
X43015Y29480D01*
Y29630D01*
X43040Y32000D02*
Y32100D01*
X43090Y32150D01*
X43140Y32100D01*
Y32000D01*
Y32075D01*
X43040D01*
X43190D02*
X43290D01*
X43240Y32125D02*
Y32025D01*
X43080Y33040D02*
Y33140D01*
X43130Y33190D01*
X43180Y33140D01*
Y33040D01*
Y33115D01*
X43080D01*
X43230D02*
X43330D01*
X43280Y33165D02*
Y33065D01*
X44640Y33230D02*
Y33080D01*
Y33130D01*
X44740Y33230D01*
X44665Y33155D01*
X44740Y33080D01*
X44790Y33155D02*
X44890D01*
X44680Y32190D02*
Y32040D01*
Y32090D01*
X44780Y32190D01*
X44705Y32115D01*
X44780Y32040D01*
X44830Y32115D02*
X44930D01*
X47840Y31715D02*
X47940D01*
X47890Y31765D02*
Y31665D01*
X48090Y31790D02*
X47990D01*
Y31715D01*
X48040Y31740D01*
X48065D01*
X48090Y31715D01*
Y31665D01*
X48065Y31640D01*
X48015D01*
X47990Y31665D01*
X48140Y31640D02*
Y31790D01*
X48215D01*
X48240Y31765D01*
Y31715D01*
X48215Y31690D01*
X48140D01*
X48190D02*
X48240Y31640D01*
X48390Y31790D02*
X48290D01*
Y31640D01*
X48390D01*
X48290Y31715D02*
X48340D01*
X48540Y31765D02*
X48515Y31790D01*
X48465D01*
X48440Y31765D01*
Y31665D01*
X48465Y31640D01*
X48515D01*
X48540Y31665D01*
Y31715D01*
X48490D01*
X45960Y33150D02*
Y33000D01*
X46060D01*
X46210Y33150D02*
X46110D01*
Y33000D01*
X46210D01*
X46110Y33075D02*
X46160D01*
X46260Y33150D02*
Y33000D01*
X46335D01*
X46360Y33025D01*
Y33125D01*
X46335Y33150D01*
X46260D01*
X48920Y34520D02*
Y34670D01*
X48995D01*
X49020Y34645D01*
Y34595D01*
X48995Y34570D01*
X48920D01*
X48970D02*
X49020Y34520D01*
X49070Y34670D02*
X49170Y34520D01*
Y34670D02*
X49070Y34520D01*
X49220D02*
X49320Y34620D01*
X49370Y34670D02*
X49470D01*
X49420D01*
Y34520D01*
X49520Y34670D02*
X49620Y34520D01*
Y34670D02*
X49520Y34520D01*
X43820Y40165D02*
X43795Y40190D01*
X43745D01*
X43720Y40165D01*
Y40065D01*
X43745Y40040D01*
X43795D01*
X43820Y40065D01*
X43870Y40040D02*
X43920D01*
X43895D01*
Y40190D01*
X43870Y40165D01*
X43995D02*
X44020Y40190D01*
X44070D01*
X44095Y40165D01*
Y40065D01*
X44070Y40040D01*
X44020D01*
X43995Y40065D01*
Y40165D01*
X43720Y39760D02*
Y39910D01*
X43795D01*
X43820Y39885D01*
Y39835D01*
X43795Y39810D01*
X43720D01*
X43770D02*
X43820Y39760D01*
X43970Y39910D02*
X43920Y39885D01*
X43870Y39835D01*
Y39785D01*
X43895Y39760D01*
X43945D01*
X43970Y39785D01*
Y39810D01*
X43945Y39835D01*
X43870D01*
X42800Y38550D02*
Y38400D01*
X42900D01*
X43050Y38550D02*
X42950D01*
Y38400D01*
X43050D01*
X42950Y38475D02*
X43000D01*
X43100Y38550D02*
Y38400D01*
X43175D01*
X43200Y38425D01*
Y38525D01*
X43175Y38550D01*
X43100D01*
X45400Y33000D02*
Y33150D01*
X45475D01*
X45500Y33125D01*
Y33075D01*
X45475Y33050D01*
X45400D01*
X45450D02*
X45500Y33000D01*
D54*
X43155Y35020D02*
X43130Y34995D01*
Y34945D01*
X43155Y34920D01*
X43255D01*
X43280Y34945D01*
Y34995D01*
X43255Y35020D01*
X43205D01*
Y34970D01*
X43130Y35170D02*
Y35070D01*
X43280D01*
Y35170D01*
X43205Y35070D02*
Y35120D01*
X43130Y35220D02*
Y35320D01*
Y35270D01*
X43280D01*
X43130Y35520D02*
Y35620D01*
Y35570D01*
X43280D01*
X43130Y35745D02*
Y35695D01*
X43155Y35670D01*
X43255D01*
X43280Y35695D01*
Y35745D01*
X43255Y35770D01*
X43155D01*
X43130Y35745D01*
Y35970D02*
X43280D01*
Y36045D01*
X43255Y36070D01*
X43155D01*
X43130Y36045D01*
Y35970D01*
X43280Y36120D02*
X43180D01*
X43130Y36170D01*
X43180Y36220D01*
X43280D01*
X43205D01*
Y36120D01*
X43155Y36519D02*
X43130Y36495D01*
Y36445D01*
X43155Y36420D01*
X43255D01*
X43280Y36445D01*
Y36495D01*
X43255Y36519D01*
X43130Y36569D02*
X43280D01*
X43205D01*
Y36669D01*
X43130D01*
X43280D01*
X43130Y36794D02*
Y36744D01*
X43155Y36719D01*
X43255D01*
X43280Y36744D01*
Y36794D01*
X43255Y36819D01*
X43155D01*
X43130Y36794D01*
X43280Y36869D02*
X43130D01*
Y36944D01*
X43155Y36969D01*
X43205D01*
X43230Y36944D01*
Y36869D01*
X43280Y37019D02*
X43130D01*
Y37094D01*
X43155Y37119D01*
X43205D01*
X43230Y37094D01*
Y37019D01*
X43280Y37169D02*
X43180D01*
X43130Y37219D01*
X43180Y37269D01*
X43280D01*
X43205D01*
Y37169D01*
X43230Y37319D02*
X43105D01*
X43255D02*
X43280D01*
D55*
X42920Y34880D02*
X42620D01*
Y35030D01*
X42670Y35080D01*
X42770D01*
X42820Y35030D01*
Y34880D01*
Y34980D02*
X42920Y35080D01*
X42620Y35330D02*
Y35230D01*
X42670Y35180D01*
X42870D01*
X42920Y35230D01*
Y35330D01*
X42870Y35380D01*
X42670D01*
X42620Y35330D01*
Y35680D02*
Y35480D01*
X42770D01*
Y35580D01*
Y35480D01*
X42920D01*
X42620Y35780D02*
X42920D01*
Y35980D01*
X42670Y36280D02*
X42620Y36230D01*
Y36130D01*
X42670Y36080D01*
X42870D01*
X42920Y36130D01*
Y36230D01*
X42870Y36280D01*
X42620Y36529D02*
Y36430D01*
X42670Y36380D01*
X42870D01*
X42920Y36430D01*
Y36529D01*
X42870Y36579D01*
X42670D01*
X42620Y36529D01*
X42920Y36679D02*
X42620D01*
Y36829D01*
X42670Y36879D01*
X42770D01*
X42820Y36829D01*
Y36679D01*
X42620Y36979D02*
Y37179D01*
Y37079D01*
X42920D01*
X42620Y37479D02*
Y37279D01*
X42920D01*
Y37479D01*
X42770Y37279D02*
Y37379D01*
X42920Y37579D02*
X42620D01*
Y37729D01*
X42670Y37779D01*
X42770D01*
X42820Y37729D01*
Y37579D01*
Y37679D02*
X42920Y37779D01*
M02*
